<svg width="40" height="40" viewBox="0 0 40 40" fill="none" xmlns="http://www.w3.org/2000/svg">
<path d="M19.9998 4.16667C15.8006 4.16667 11.7733 5.83482 8.80398 8.80415C5.83465 11.7735 4.1665 15.8007 4.1665 20C4.1665 24.1993 5.83465 28.2265 8.80398 31.1959C11.7733 34.1652 15.8006 35.8333 19.9998 35.8333C24.1991 35.8333 28.2264 34.1652 31.1957 31.1959C34.165 28.2265 35.8332 24.1993 35.8332 20C35.8332 15.8007 34.165 11.7735 31.1957 8.80415C28.2264 5.83482 24.1991 4.16667 19.9998 4.16667Z" fill="#317BFF"/>
<path d="M22.1435 24.1967H26.241L26.8844 20.0342H22.1427V17.7592C22.1427 16.03 22.7077 14.4967 24.3252 14.4967H26.9244V10.8642C26.4677 10.8025 25.5019 10.6675 23.6769 10.6675C19.866 10.6675 17.6319 12.68 17.6319 17.265V20.0342H13.7144V24.1967H17.6319V35.6375C18.4077 35.7542 19.1935 35.8333 20.0002 35.8333C20.7294 35.8333 21.441 35.7667 22.1435 35.6717V24.1967Z" fill="white"/>
</svg>
