<svg width="40" height="40" viewBox="0 0 40 40" fill="none" xmlns="http://www.w3.org/2000/svg">
<path d="M33.7868 17.6H20V22.8H28.3424C27.1724 26.2868 23.8808 28.8 20 28.8C15.14 28.8 11.2 24.86 11.2 20C11.2 15.14 15.14 11.2 20 11.2C21.9196 11.2 23.694 11.8164 25.1404 12.8596L28.848 9.152C26.4364 7.1824 23.3564 6 20 6C12.268 6 6 12.268 6 20C6 27.732 12.268 34 20 34C27.732 34 34 27.732 34 20C34 19.1808 33.9224 18.3804 33.7868 17.6Z" fill="#F9E65C"/>
<path d="M20 22.8H28.3424C27.7116 24.6796 26.4608 26.2716 24.8372 27.344L28.7852 30.8976C31.9644 28.3312 34 24.404 34 20C34 19.1808 33.9224 18.3804 33.7868 17.6H20V22.8Z" fill="#78A2D2"/>
<path d="M24.8373 27.344C23.4489 28.2612 21.7889 28.8 20.0001 28.8C16.4013 28.8 13.3093 26.6388 11.9453 23.5444L7.52734 26.356C9.84374 30.892 14.5573 34 20.0001 34C23.3281 34 26.3829 32.8368 28.7853 30.8976L24.8373 27.344Z" fill="#60BE92"/>
<path d="M11.8708 16.6276C13.194 13.4412 16.3348 11.2 20 11.2C21.9196 11.2 23.694 11.8164 25.1404 12.8596L28.848 9.152C26.4364 7.1824 23.3564 6 20 6C14.4912 6 9.72758 9.1832 7.44238 13.8096L11.8708 16.6276Z" fill="#F15B6C"/>
<path d="M20.0001 34.4C12.0597 34.4 5.6001 27.9404 5.6001 20C5.6001 12.0596 12.0597 5.60001 20.0001 5.60001C23.3085 5.60001 26.5413 6.75121 29.1013 8.84201C29.1889 8.91361 29.2421 9.01881 29.2477 9.13161C29.2533 9.24441 29.2109 9.35481 29.1309 9.43441L25.4233 13.142C25.2845 13.2808 25.0653 13.2984 24.9065 13.1836C23.4701 12.1476 21.7733 11.6 20.0001 11.6C15.3685 11.6 11.6001 15.368 11.6001 20C11.6001 24.632 15.3685 28.4 20.0001 28.4C23.4253 28.4 26.4785 26.3328 27.7669 23.2H20.0001C19.7789 23.2 19.6001 23.0208 19.6001 22.8V17.6C19.6001 17.3792 19.7789 17.2 20.0001 17.2H33.7869C33.9813 17.2 34.1477 17.34 34.1809 17.5316C34.3261 18.3688 34.4001 19.1996 34.4001 20C34.4001 27.9404 27.9405 34.4 20.0001 34.4ZM20.0001 6.40001C12.5009 6.40001 6.4001 12.5008 6.4001 20C6.4001 27.4992 12.5009 33.6 20.0001 33.6C27.4993 33.6 33.6001 27.4992 33.6001 20C33.6001 19.3504 33.5485 18.6792 33.4465 18H20.4001V22.4H28.3425C28.4713 22.4 28.5921 22.462 28.6673 22.5664C28.7425 22.6708 28.7629 22.8052 28.7221 22.9272C27.4629 26.6792 23.9581 29.2 20.0001 29.2C14.9269 29.2 10.8001 25.0728 10.8001 20C10.8001 14.9272 14.9269 10.8 20.0001 10.8C21.8277 10.8 23.5817 11.3316 25.0941 12.3404L28.2473 9.18721C25.8881 7.38681 22.9769 6.40001 20.0001 6.40001Z" fill="#1F212B"/>
<path d="M28.6 31.2C28.5524 31.2 28.5044 31.1832 28.466 31.1488L26.866 29.7088C26.784 29.6348 26.7772 29.5084 26.8512 29.4264C26.926 29.3444 27.052 29.338 27.134 29.4116L28.734 30.8516C28.816 30.9256 28.8228 31.052 28.7488 31.134C28.7088 31.1776 28.6548 31.2 28.6 31.2Z" fill="#1F212B"/>
<path d="M26.2 29.04C26.1524 29.04 26.1044 29.0232 26.066 28.9888L25.3552 28.3488C25.2732 28.2748 25.2664 28.1484 25.3404 28.0664C25.4152 27.9844 25.5412 27.978 25.6232 28.0516L26.334 28.6916C26.416 28.7656 26.4228 28.892 26.3488 28.974C26.3088 29.0176 26.2548 29.04 26.2 29.04Z" fill="#1F212B"/>
<path d="M11.1717 24C11.1057 24 11.0413 23.9672 11.0029 23.9076C10.9437 23.8144 10.9713 23.6908 11.0641 23.6316L11.6925 23.2316C11.7849 23.1732 11.9089 23.1996 11.9685 23.2928C12.0277 23.386 12.0001 23.5096 11.9073 23.5688L11.2789 23.9688C11.2457 23.99 11.2085 24 11.1717 24Z" fill="#1F212B"/>
<path d="M9.40019 25.1272C9.33419 25.1272 9.26979 25.0944 9.23139 25.0348C9.17219 24.9416 9.19979 24.818 9.29259 24.7588L10.0926 24.2496C10.185 24.1912 10.309 24.2172 10.3686 24.3108C10.4278 24.404 10.4002 24.5276 10.3074 24.5868L9.50739 25.096C9.47459 25.1172 9.43739 25.1272 9.40019 25.1272Z" fill="#1F212B"/>
<path d="M7.40019 26.4C7.33419 26.4 7.26979 26.3672 7.23139 26.3076C7.17219 26.2144 7.19979 26.0908 7.29259 26.0316L8.49259 25.268C8.58459 25.2096 8.70899 25.236 8.76859 25.3292C8.82779 25.4224 8.80019 25.546 8.70739 25.6052L7.50739 26.3688C7.47459 26.39 7.43739 26.4 7.40019 26.4Z" fill="#1F212B"/>
<path d="M9.79979 15.2728C9.76259 15.2728 9.72539 15.2628 9.69219 15.2416L7.69219 13.9688C7.59939 13.9096 7.57138 13.7856 7.63098 13.6928C7.69058 13.5996 7.81498 13.5732 7.90698 13.6316L9.90699 14.9044C9.99979 14.9636 10.0278 15.0876 9.96819 15.1804C9.93019 15.24 9.86579 15.2728 9.79979 15.2728Z" fill="#1F212B"/>
<path d="M11.0001 16.0364C10.9629 16.0364 10.9257 16.0264 10.8925 16.0052L10.4925 15.7508C10.3997 15.6916 10.3717 15.5676 10.4313 15.4748C10.4913 15.3816 10.6153 15.3552 10.7073 15.4136L11.1073 15.668C11.2001 15.7272 11.2281 15.8512 11.1685 15.944C11.1305 16.0036 11.0661 16.0364 11.0001 16.0364Z" fill="#1F212B"/>
</svg>
