<svg width="59" height="15" viewBox="0 0 59 15" fill="none" xmlns="http://www.w3.org/2000/svg">
<path d="M0.167005 11H2.23901V7.318H3.62501C5.85101 7.318 7.62901 6.254 7.62901 3.888C7.62901 1.438 5.86501 0.64 3.56901 0.64H0.167005V11ZM2.23901 5.68V2.278H3.41501C4.84301 2.278 5.59901 2.684 5.59901 3.888C5.59901 5.078 4.91301 5.68 3.48501 5.68H2.23901ZM9.3369 11H11.3809V6.324C11.8289 5.19 12.5709 4.784 13.1869 4.784C13.5089 4.784 13.7329 4.826 13.9989 4.91L14.3629 3.132C14.1249 3.034 13.8729 2.964 13.4389 2.964C12.6269 2.964 11.7869 3.524 11.2129 4.546H11.1569L11.0169 3.16H9.3369V11ZM18.5465 11.196C20.5065 11.196 22.3125 9.684 22.3125 7.094C22.3125 4.476 20.5065 2.964 18.5465 2.964C16.5865 2.964 14.7805 4.476 14.7805 7.094C14.7805 9.684 16.5865 11.196 18.5465 11.196ZM18.5465 9.516C17.4825 9.516 16.8805 8.564 16.8805 7.094C16.8805 5.61 17.4825 4.644 18.5465 4.644C19.6105 4.644 20.2125 5.61 20.2125 7.094C20.2125 8.564 19.6105 9.516 18.5465 9.516ZM26.2058 11.196C28.2498 11.196 29.3278 10.09 29.3278 8.718C29.3278 7.262 28.1798 6.744 27.1438 6.352C26.3178 6.044 25.5478 5.834 25.5478 5.26C25.5478 4.812 25.8838 4.504 26.5838 4.504C27.1718 4.504 27.7178 4.784 28.2778 5.176L29.2018 3.93C28.5438 3.44 27.6758 2.964 26.5278 2.964C24.7638 2.964 23.6158 3.958 23.6158 5.372C23.6158 6.674 24.7638 7.276 25.7578 7.654C26.5838 7.976 27.3958 8.242 27.3958 8.83C27.3958 9.32 27.0458 9.656 26.2618 9.656C25.5338 9.656 24.8618 9.348 24.1618 8.802L23.2238 10.09C23.9938 10.734 25.1558 11.196 26.2058 11.196ZM33.4393 11.196C34.1253 11.196 34.6713 11.042 35.0913 10.902L34.7553 9.404C34.5453 9.488 34.2373 9.572 33.9853 9.572C33.2853 9.572 32.9213 9.152 32.9213 8.256V4.784H34.8533V3.16H32.9213V1.06H31.1993L30.9613 3.16L29.7573 3.258V4.784H30.8633V8.256C30.8633 10.02 31.5773 11.196 33.4393 11.196ZM38.0521 11.196C38.9481 11.196 39.7321 10.748 40.4181 10.16H40.4601L40.6141 11H42.2941V6.422C42.2941 4.154 41.2721 2.964 39.2841 2.964C38.0521 2.964 36.9321 3.426 36.0081 4L36.7501 5.358C37.4781 4.938 38.1781 4.616 38.9061 4.616C39.8721 4.616 40.2081 5.204 40.2361 5.974C37.0861 6.31 35.7281 7.192 35.7281 8.872C35.7281 10.202 36.6521 11.196 38.0521 11.196ZM38.7241 9.586C38.1221 9.586 37.6881 9.32 37.6881 8.704C37.6881 8.004 38.3321 7.486 40.2361 7.234V8.816C39.7461 9.306 39.3121 9.586 38.7241 9.586ZM47.1496 14.402C49.7676 14.402 51.4056 13.198 51.4056 11.616C51.4056 10.244 50.3836 9.656 48.4936 9.656H47.1636C46.2396 9.656 45.9316 9.432 45.9316 9.012C45.9316 8.704 46.0436 8.522 46.2676 8.34C46.6036 8.452 46.9676 8.522 47.2756 8.522C48.9556 8.522 50.2996 7.626 50.2996 5.862C50.2996 5.372 50.1456 4.938 49.9356 4.672H51.2796V3.16H48.4516C48.1296 3.048 47.7096 2.964 47.2756 2.964C45.6096 2.964 44.1116 3.958 44.1116 5.806C44.1116 6.716 44.6156 7.458 45.1476 7.85V7.906C44.6856 8.242 44.2796 8.788 44.2796 9.376C44.2796 10.02 44.5876 10.426 44.9936 10.692V10.762C44.2796 11.168 43.8736 11.728 43.8736 12.386C43.8736 13.772 45.3016 14.402 47.1496 14.402ZM47.2756 7.248C46.5896 7.248 46.0436 6.73 46.0436 5.806C46.0436 4.882 46.5756 4.364 47.2756 4.364C47.9756 4.364 48.4936 4.882 48.4936 5.806C48.4936 6.73 47.9616 7.248 47.2756 7.248ZM47.4576 13.1C46.3096 13.1 45.5816 12.722 45.5816 12.064C45.5816 11.742 45.7496 11.434 46.0996 11.154C46.3796 11.224 46.7156 11.266 47.1916 11.266H48.1436C48.9836 11.266 49.4456 11.406 49.4456 11.966C49.4456 12.582 48.6336 13.1 47.4576 13.1ZM55.8873 11.196C56.8673 11.196 57.8613 10.86 58.6313 10.328L57.9313 9.068C57.3713 9.418 56.8113 9.614 56.1673 9.614C55.0053 9.614 54.1653 8.942 53.9973 7.654H58.8273C58.8833 7.472 58.9253 7.094 58.9253 6.716C58.9253 4.546 57.8053 2.964 55.6493 2.964C53.7733 2.964 51.9953 4.546 51.9953 7.094C51.9953 9.67 53.7033 11.196 55.8873 11.196ZM53.9693 6.296C54.1233 5.148 54.8513 4.56 55.6773 4.56C56.6853 4.56 57.1613 5.232 57.1613 6.296H53.9693Z" fill="black" fill-opacity="0.87"/>
</svg>
