<svg width="100" height="100" viewBox="0 0 100 100" fill="none" xmlns="http://www.w3.org/2000/svg">
<path d="M89.208 48.2497L51.708 10.7497C50.208 9.24967 48.1247 8.33301 45.833 8.33301H16.6663C12.083 8.33301 8.33301 12.083 8.33301 16.6663V45.833C8.33301 48.1247 9.24967 50.208 10.7913 51.7497L48.2913 89.2497C49.7913 90.7497 51.8747 91.6664 54.1663 91.6664C56.458 91.6664 58.5413 90.7497 60.0413 89.208L89.208 60.0413C90.7497 58.5413 91.6664 56.458 91.6664 54.1663C91.6664 51.8747 90.708 49.7497 89.208 48.2497ZM22.9163 29.1663C19.458 29.1663 16.6663 26.3747 16.6663 22.9163C16.6663 19.458 19.458 16.6663 22.9163 16.6663C26.3747 16.6663 29.1663 19.458 29.1663 22.9163C29.1663 26.3747 26.3747 29.1663 22.9163 29.1663ZM71.958 63.6247L54.1663 81.4164L36.3747 63.6247C34.4997 61.708 33.333 59.1247 33.333 56.2497C33.333 50.4997 37.9997 45.833 43.7497 45.833C46.6247 45.833 49.2497 46.9997 51.1247 48.9163L54.1663 51.9163L57.208 48.8747C59.083 46.9997 61.708 45.833 64.583 45.833C70.333 45.833 74.9997 50.4997 74.9997 56.2497C74.9997 59.1247 73.833 61.7497 71.958 63.6247Z" fill="#1890FF"/>
</svg>
