<svg width="58" height="58" viewBox="0 0 58 58" fill="none" xmlns="http://www.w3.org/2000/svg">
<path d="M55.9149 27.5974L29.9884 1.67082C28.9513 0.633759 27.5109 0 25.9265 0H5.76145C2.59265 0 0 2.59265 0 5.76145V25.9265C0 27.5109 0.63376 28.9513 1.69963 30.0172L27.6262 55.9437C28.6632 56.9808 30.1036 57.6145 31.688 57.6145C33.2724 57.6145 34.7127 56.9808 35.7498 55.9149L55.9149 35.7498C56.9808 34.7127 57.6145 33.2724 57.6145 31.688C57.6145 30.1036 56.952 28.6344 55.9149 27.5974ZM10.0825 14.4036C7.69154 14.4036 5.76145 12.4735 5.76145 10.0825C5.76145 7.69154 7.69154 5.76145 10.0825 5.76145C12.4735 5.76145 14.4036 7.69154 14.4036 10.0825C14.4036 12.4735 12.4735 14.4036 10.0825 14.4036ZM43.9887 38.2272L31.688 50.5279L19.3873 38.2272C18.091 36.9021 17.2844 35.1161 17.2844 33.1283C17.2844 29.1529 20.5108 25.9265 24.4862 25.9265C26.4739 25.9265 28.2887 26.7331 29.5851 28.0583L31.688 30.1324L33.7909 28.0295C35.0872 26.7331 36.9021 25.9265 38.8898 25.9265C42.8652 25.9265 46.0916 29.1529 46.0916 33.1283C46.0916 35.1161 45.285 36.9309 43.9887 38.2272Z" fill="#D1D1D1"/>
</svg>
