<svg width="53" height="58" viewBox="0 0 53 58" fill="none" xmlns="http://www.w3.org/2000/svg">
<path d="M4.36816 29.837V38.2313H17.6421V26.2237L17.6539 18.414L17.6421 18.424V18.4004L4.36816 29.837Z" fill="#D1D1D1"/>
<path d="M20.3468 18.4219V18.439L20.3291 18.4219V38.1529V38.2132V38.2313H32.3456V29.654L25.1937 22.9691L20.3468 18.4219Z" fill="#D1D1D1"/>
<path d="M48.3507 14.8163V14.7891L35.0332 29.4394V38.2314H48.3507V24.8292L48.3643 14.8013L48.3507 14.8163Z" fill="#D1D1D1"/>
<path d="M19.0286 51.3479C18.7601 51.0902 18.4268 50.8858 18.0506 50.7355C17.6743 50.5847 17.1908 50.4775 16.6102 50.3914L15.0945 50.1765C14.8259 50.1334 14.5894 50.0798 14.4065 50.0046C14.2241 49.9184 14.0733 49.8218 13.9336 49.7145C13.8048 49.5854 13.7186 49.4456 13.6651 49.2953C13.6114 49.1555 13.5789 48.9946 13.5789 48.8332C13.5789 48.4139 13.7402 48.0591 14.0518 47.7475C14.364 47.4464 14.858 47.2961 15.5244 47.2961C15.9327 47.2961 16.3736 47.3498 16.8357 47.4464C17.3086 47.5431 17.728 47.769 18.1258 48.1343L19.6058 46.726L19.6717 46.664C19.6717 46.664 19.6713 46.664 19.6713 46.6636L19.684 46.6513C19.1468 46.1352 18.5446 45.77 17.8893 45.555C17.2334 45.3401 16.4703 45.2324 15.589 45.2324C14.901 45.2324 14.2888 45.3186 13.7401 45.5009C13.192 45.6839 12.73 45.9418 12.3537 46.2641C11.9775 46.5867 11.6873 46.9736 11.4829 47.425C11.2789 47.8764 11.1822 48.3709 11.1822 48.9191C11.1822 49.9618 11.4829 50.7573 12.085 51.316C12.3751 51.5846 12.7083 51.8 13.1061 51.9608C13.493 52.1222 13.9764 52.2509 14.5462 52.3265L16.0512 52.5521C16.3734 52.595 16.6099 52.6487 16.7712 52.7027C16.9215 52.7564 17.0613 52.842 17.201 52.9604C17.4591 53.2079 17.5879 53.5516 17.5879 53.9709C17.5879 54.4545 17.3946 54.8307 17.0183 55.0994C16.642 55.3574 16.0724 55.4866 15.3308 55.4866C14.7505 55.4866 14.1914 55.422 13.6759 55.2716C13.1492 55.1208 12.6869 54.8522 12.2785 54.4655L10.7413 55.9402L10.6895 55.9895L10.6899 55.9899L10.6768 56.0023C11.3004 56.6044 11.9884 57.0234 12.7404 57.2599C13.493 57.4964 14.3527 57.6146 15.3092 57.6146C15.9756 57.6146 16.5883 57.5288 17.1691 57.3676C17.7493 57.1958 18.2437 56.9592 18.6631 56.6476C19.0821 56.3355 19.4153 55.9487 19.6518 55.4867C19.8883 55.0353 20.0065 54.5087 20.0065 53.9175C20.0065 53.3693 19.9313 52.8854 19.7805 52.4445C19.6197 52.0146 19.3723 51.6489 19.0286 51.3479Z" fill="#D1D1D1"/>
<path d="M22.6504 45.7803V56.969V57.0375V57.0555H30.3784V55.0991H24.9401V52.3583H29.5722V50.3913H24.9401V47.7474H30.3784V45.7803H22.6504Z" fill="#D1D1D1"/>
<path d="M41.8688 48.5538C41.7826 48.1665 41.6539 47.8012 41.4819 47.468C41.3096 47.1348 41.0626 46.8232 40.7404 46.5115C40.321 46.1032 39.8264 45.7805 39.2893 45.5656C38.7408 45.3401 38.0959 45.2324 37.3648 45.2324C36.6233 45.2324 35.9785 45.3401 35.4304 45.5656C34.8822 45.7805 34.3877 46.1033 33.9578 46.5115C33.6461 46.8232 33.3991 47.1348 33.2268 47.468C33.055 47.8012 32.9262 48.1665 32.8505 48.5538C32.7754 48.9516 32.7217 49.3815 32.7112 49.8435C32.6897 50.3165 32.6787 50.843 32.6787 51.4236C32.6787 52.0039 32.6897 52.5304 32.7112 52.9929C32.7218 53.4659 32.7754 53.8958 32.8505 54.2826C32.9262 54.6804 33.055 55.0458 33.2268 55.3684C33.3991 55.7016 33.6461 56.0238 33.9578 56.3249C34.3877 56.7442 34.8821 57.0559 35.4304 57.2814C35.9785 57.4963 36.6234 57.6146 37.3648 57.6146C38.0959 57.6146 38.7407 57.4964 39.2893 57.2814C39.8265 57.0559 40.321 56.7442 40.7404 56.3249C41.0625 56.0238 41.3095 55.7016 41.4819 55.3684C41.6538 55.0458 41.7826 54.6804 41.8688 54.2826C41.944 53.8958 41.9975 53.4659 42.0191 52.9929C42.0302 52.5304 42.0406 52.0039 42.0406 51.4236C42.0406 50.843 42.03 50.3165 42.0191 49.8435C41.9975 49.3815 41.944 48.9516 41.8688 48.5538ZM38.9453 54.8197C38.7624 55.0135 38.5475 55.1749 38.2789 55.3037C38.0103 55.4326 37.7093 55.4866 37.365 55.4866C37.0213 55.4866 36.7096 55.4326 36.4411 55.3037C36.1831 55.1749 35.9466 55.0136 35.7637 54.8197C35.6455 54.7019 35.5383 54.5621 35.4631 54.4009C35.3875 54.2506 35.3234 54.0568 35.2801 53.8097C35.2266 53.5627 35.205 53.2505 35.1835 52.8638C35.162 52.4875 35.151 52.0039 35.151 51.4236C35.151 50.843 35.162 50.3594 35.1835 49.9722C35.205 49.5965 35.2266 49.2739 35.2801 49.0268C35.3232 48.7793 35.3875 48.5754 35.4631 48.4246C35.5383 48.2637 35.6455 48.124 35.7637 48.0058C35.9466 47.8013 36.1831 47.651 36.4411 47.5328C36.7096 47.4146 37.0213 47.35 37.365 47.35C37.7092 47.35 38.0102 47.4146 38.2789 47.5328C38.5474 47.651 38.7624 47.8013 38.9453 48.0058C39.0636 48.124 39.1602 48.2638 39.2354 48.4246C39.3216 48.5754 39.3752 48.7793 39.4287 49.0268C39.4718 49.2739 39.5039 49.5965 39.5365 49.9722C39.558 50.3596 39.5686 50.843 39.5686 51.4236C39.5686 52.0039 39.558 52.4875 39.5365 52.8638C39.5039 53.2505 39.4719 53.5626 39.4287 53.8097C39.3752 54.0568 39.3215 54.2506 39.2354 54.4009C39.1602 54.5621 39.0636 54.7019 38.9453 54.8197Z" fill="#D1D1D1"/>
<path d="M48.3464 0C45.9402 0 43.9836 1.96531 43.9836 4.3715C43.9836 5.20264 44.2175 5.98156 44.624 6.63962L35.7426 16.4128C35.1365 16.0925 34.4525 15.9104 33.7171 15.9104C32.8428 15.9104 32.0287 16.1702 31.3452 16.6119L22.8617 8.67391C23.2252 8.0334 23.4419 7.2888 23.4419 6.5011C23.4419 4.09446 21.4766 2.13793 19.0705 2.13793C16.6639 2.13793 14.7073 4.09434 14.7073 6.5011C14.7073 7.21104 14.8718 7.87732 15.1833 8.46596L6.87346 15.6165C6.16352 15.1228 5.29806 14.8288 4.3715 14.8288C1.96531 14.8288 0 16.7936 0 19.2002C0 21.6068 1.96531 23.5629 4.3715 23.5629C6.77803 23.5629 8.73457 21.6069 8.73457 19.2002C8.73457 18.4991 8.57016 17.841 8.2669 17.2525L16.5861 10.0937C17.2956 10.5869 18.144 10.8726 19.0705 10.8726C19.9101 10.8726 20.6978 10.6304 21.3641 10.2147L29.8908 18.1874C29.5444 18.8107 29.354 19.5202 29.354 20.2736C29.354 22.6801 31.3106 24.6363 33.7172 24.6363C36.1234 24.6363 38.0799 22.6802 38.0799 20.2736C38.0799 19.3821 37.8118 18.5422 37.3441 17.8498L46.1737 8.14604C46.8145 8.52672 47.5588 8.73456 48.3465 8.73456C50.753 8.73456 52.7179 6.77815 52.7179 4.3715C52.7177 1.96531 50.7529 0 48.3464 0ZM4.3715 21.8319C2.91741 21.8319 1.73136 20.6459 1.73136 19.2002C1.73136 17.7456 2.9173 16.5597 4.3715 16.5597C5.81715 16.5597 7.00309 17.7456 7.00309 19.2002C7.00309 20.6459 5.81715 21.8319 4.3715 21.8319ZM19.0705 9.14113C17.6248 9.14113 16.4388 7.95519 16.4388 6.5011C16.4388 5.31516 17.2265 4.30241 18.3171 3.97315C18.3866 3.95593 18.4556 3.93883 18.5339 3.92128C18.603 3.91295 18.6807 3.89528 18.7502 3.89528C18.8539 3.87818 18.9581 3.8694 19.0706 3.8694C20.2649 3.8694 21.2864 4.67477 21.5981 5.76528C21.65 5.91258 21.6848 6.06809 21.6936 6.2325C21.7019 6.31914 21.7107 6.41457 21.7107 6.5011C21.7105 7.95519 20.5245 9.14113 19.0705 9.14113ZM33.7172 22.9051C32.2714 22.9051 31.0856 21.7275 31.0856 20.2736C31.0856 18.819 32.2714 17.642 33.7172 17.642C35.1713 17.642 36.3485 18.8191 36.3485 20.2736C36.3485 21.7277 35.1712 22.9051 33.7172 22.9051ZM48.3464 7.00309C46.901 7.00309 45.7151 5.81715 45.7151 4.3715C45.7151 3.92139 45.8276 3.48883 46.0351 3.11647C46.0699 3.04704 46.1129 2.97806 46.1564 2.9173C46.1564 2.90852 46.1564 2.90019 46.1652 2.90019C46.6412 2.19869 47.4461 1.73136 48.3464 1.73136C49.2554 1.73136 50.0606 2.19869 50.5367 2.90019C50.545 2.90019 50.545 2.90852 50.545 2.9173C50.5885 2.97795 50.6317 3.04704 50.6664 3.11647C50.8743 3.48883 50.9868 3.92139 50.9868 4.3715C50.9868 5.81715 49.8008 7.00309 48.3464 7.00309Z" fill="#D1D1D1"/>
</svg>
