<svg width="100" height="100" viewBox="0 0 100 100" fill="none" xmlns="http://www.w3.org/2000/svg">
<g clip-path="url(#clip0)">
<path d="M11.8311 51.7867V66.3564H34.8703V45.5152L34.8908 31.9602L34.8703 31.9775V31.9365L11.8311 51.7867Z" fill="#FF7875"/>
<path d="M39.5658 31.9736V32.0033L39.5352 31.9736V66.2203V66.325V66.3563H60.3918V51.4689L47.9785 39.8662L39.5658 31.9736Z" fill="#FF7875"/>
<path d="M88.1705 25.7152V25.668L65.0557 51.0961V66.3562H88.1705V43.0943L88.1941 25.6893L88.1705 25.7152Z" fill="#FF7875"/>
<path d="M37.2773 89.1232C36.8113 88.676 36.2328 88.3213 35.5799 88.0604C34.9268 87.7986 34.0875 87.6125 33.0797 87.4631L30.449 87.09C29.9828 87.0152 29.5723 86.9223 29.2549 86.7918C28.9383 86.6422 28.6766 86.4744 28.434 86.2883C28.2105 86.0641 28.0609 85.8215 27.968 85.5605C27.8748 85.318 27.8184 85.0387 27.8184 84.7586C27.8184 84.0309 28.0984 83.415 28.6393 82.8742C29.1811 82.3516 30.0385 82.0906 31.1951 82.0906C31.9039 82.0906 32.6691 82.1838 33.4711 82.3516C34.292 82.5193 35.0199 82.9115 35.7104 83.5455L38.2791 81.1012L38.3936 80.9936C38.3936 80.9936 38.3928 80.9936 38.3928 80.9928L38.4148 80.9715C37.4824 80.0758 36.4373 79.4418 35.2998 79.0688C34.1615 78.6957 32.8369 78.5088 31.3072 78.5088C30.1131 78.5088 29.0506 78.6584 28.0982 78.9748C27.1469 79.2924 26.3449 79.74 25.6918 80.2994C25.0389 80.8594 24.5352 81.5309 24.1805 82.3145C23.8264 83.0978 23.6586 83.9562 23.6586 84.9076C23.6586 86.7174 24.1805 88.0982 25.2256 89.068C25.7291 89.5342 26.3074 89.908 26.9979 90.1871C27.6693 90.4672 28.5084 90.6906 29.4973 90.8219L32.1096 91.2133C32.6687 91.2879 33.0793 91.3811 33.3592 91.4748C33.6201 91.568 33.8627 91.7166 34.1053 91.9221C34.5531 92.3516 34.7768 92.9482 34.7768 93.676C34.7768 94.5152 34.4412 95.1684 33.7881 95.6346C33.135 96.0824 32.1463 96.3066 30.8592 96.3066C29.852 96.3066 28.8814 96.1945 27.9867 95.9336C27.0727 95.6719 26.2701 95.2057 25.5613 94.5344L22.8934 97.0939L22.8033 97.1795L22.8041 97.1803L22.7812 97.2018C23.8637 98.2469 25.0578 98.974 26.3631 99.3846C27.6693 99.7951 29.1615 100 30.8217 100C31.9783 100 33.0418 99.8514 34.0498 99.5715C35.0568 99.2732 35.915 98.8627 36.643 98.3219C37.3701 97.7801 37.9484 97.1088 38.359 96.3068C38.7695 95.5234 38.9746 94.6094 38.9746 93.5832C38.9746 92.6318 38.8441 91.7918 38.5824 91.0266C38.3033 90.2805 37.8738 89.6457 37.2773 89.1232Z" fill="#FF7875"/>
<path d="M43.5645 79.46V98.8799V98.9988V99.0301H56.9777V95.6344H47.5387V90.8773H55.5785V87.4633H47.5387V82.8742H56.9777V79.46H43.5645Z" fill="#FF7875"/>
<path d="M76.9207 84.2736C76.7711 83.6014 76.5477 82.9674 76.2492 82.3891C75.9502 81.8107 75.5215 81.2699 74.9621 80.7289C74.2342 80.0201 73.3758 79.4602 72.4436 79.0871C71.4916 78.6957 70.3723 78.5088 69.1033 78.5088C67.8162 78.5088 66.6971 78.6957 65.7457 79.0871C64.7943 79.4602 63.9359 80.0203 63.1898 80.7289C62.6488 81.2699 62.2201 81.8107 61.9211 82.3891C61.6229 82.9674 61.3992 83.6014 61.268 84.2736C61.1375 84.9641 61.0443 85.7102 61.0262 86.5121C60.9889 87.333 60.9697 88.2469 60.9697 89.2547C60.9697 90.2619 60.9889 91.1758 61.0262 91.9785C61.0445 92.7994 61.1375 93.5455 61.268 94.217C61.3992 94.9074 61.6229 95.5416 61.9211 96.1016C62.2201 96.6799 62.6488 97.2391 63.1898 97.7617C63.9359 98.4895 64.7941 99.0305 65.7457 99.4219C66.6971 99.7949 67.8164 100 69.1033 100C70.3723 100 71.4914 99.7951 72.4436 99.4219C73.376 99.0305 74.2342 98.4895 74.9621 97.7617C75.5213 97.2391 75.95 96.6799 76.2492 96.1016C76.5475 95.5416 76.7711 94.9074 76.9207 94.217C77.0512 93.5455 77.1441 92.7994 77.1816 91.9785C77.2008 91.1758 77.2189 90.2619 77.2189 89.2547C77.2189 88.2469 77.2006 87.333 77.1816 86.5121C77.1441 85.7102 77.0512 84.9641 76.9207 84.2736ZM71.8465 95.1492C71.5291 95.4855 71.1561 95.7656 70.6898 95.9893C70.2236 96.2129 69.7012 96.3066 69.1035 96.3066C68.507 96.3066 67.966 96.2129 67.5 95.9893C67.0521 95.7656 66.6418 95.4857 66.3242 95.1492C66.1191 94.9447 65.933 94.7021 65.8025 94.4223C65.6713 94.1613 65.56 93.825 65.485 93.3961C65.392 92.9674 65.3545 92.4256 65.3172 91.7543C65.2799 91.1012 65.2607 90.2619 65.2607 89.2547C65.2607 88.2469 65.2799 87.4076 65.3172 86.7355C65.3545 86.0834 65.392 85.5234 65.485 85.0945C65.5598 84.665 65.6713 84.3111 65.8025 84.0494C65.933 83.7701 66.1191 83.5275 66.3242 83.3225C66.6418 82.9676 67.0521 82.7066 67.5 82.5016C67.966 82.2963 68.507 82.1842 69.1035 82.1842C69.701 82.1842 70.2234 82.2963 70.6898 82.5016C71.1559 82.7066 71.5291 82.9676 71.8465 83.3225C72.0518 83.5275 72.2195 83.7703 72.35 84.0494C72.4996 84.3111 72.5926 84.665 72.6855 85.0945C72.7604 85.5234 72.816 86.0834 72.8727 86.7355C72.91 87.4078 72.9283 88.2469 72.9283 89.2547C72.9283 90.2619 72.91 91.1012 72.8727 91.7543C72.816 92.4256 72.7605 92.9672 72.6855 93.3961C72.5926 93.825 72.4994 94.1613 72.35 94.4223C72.2195 94.7021 72.0518 94.9447 71.8465 95.1492Z" fill="#FF7875"/>
<path d="M88.1635 0C83.9871 0 80.5912 3.41113 80.5912 7.5875C80.5912 9.03008 80.9971 10.382 81.7027 11.5242L66.2875 28.4873C65.2355 27.9312 64.0482 27.6152 62.7719 27.6152C61.2543 27.6152 59.8414 28.0662 58.6551 28.8328L43.9305 15.0551C44.5613 13.9434 44.9375 12.651 44.9375 11.2838C44.9375 7.10664 41.5264 3.71074 37.3502 3.71074C33.173 3.71074 29.7771 7.10644 29.7771 11.2838C29.7771 12.516 30.0625 13.6725 30.6033 14.6941L16.1801 27.1051C14.9479 26.2482 13.4457 25.7379 11.8375 25.7379C7.66113 25.7379 4.25 29.1482 4.25 33.3252C4.25 37.5023 7.66113 40.8975 11.8375 40.8975C16.0145 40.8975 19.4104 37.5025 19.4104 33.3252C19.4104 32.1084 19.125 30.9662 18.5986 29.9447L33.0381 17.5193C34.2695 18.3754 35.742 18.8713 37.3502 18.8713C38.8074 18.8713 40.1746 18.451 41.3311 17.7293L56.1307 31.5674C55.5295 32.6492 55.199 33.8807 55.199 35.1883C55.199 39.3652 58.5949 42.7605 62.7721 42.7605C66.9484 42.7605 70.3443 39.3654 70.3443 35.1883C70.3443 33.641 69.8789 32.1832 69.0672 30.9814L84.3924 14.1389C85.5047 14.7996 86.7965 15.1604 88.1637 15.1604C92.3406 15.1604 95.751 11.7646 95.751 7.5875C95.7508 3.41113 92.3404 0 88.1635 0ZM11.8375 37.893C9.31367 37.893 7.25508 35.8346 7.25508 33.3252C7.25508 30.8006 9.31348 28.7422 11.8375 28.7422C14.3467 28.7422 16.4051 30.8006 16.4051 33.3252C16.4051 35.8346 14.3467 37.893 11.8375 37.893ZM37.3502 15.866C34.8408 15.866 32.7824 13.8076 32.7824 11.2838C32.7824 9.22539 34.1496 7.46758 36.0426 6.89609C36.1631 6.86621 36.2828 6.83652 36.4188 6.80605C36.5387 6.7916 36.6736 6.76094 36.7941 6.76094C36.9742 6.73125 37.1551 6.71602 37.3504 6.71602C39.4232 6.71602 41.1963 8.11387 41.7373 10.0066C41.8273 10.2623 41.8877 10.5322 41.9029 10.8176C41.9174 10.968 41.9326 11.1336 41.9326 11.2838C41.9324 13.8076 39.8738 15.866 37.3502 15.866ZM62.7721 39.7559C60.2627 39.7559 58.2045 37.7119 58.2045 35.1883C58.2045 32.6637 60.2627 30.6207 62.7721 30.6207C65.2959 30.6207 67.3391 32.6639 67.3391 35.1883C67.3391 37.7121 65.2957 39.7559 62.7721 39.7559ZM88.1635 12.1551C85.6549 12.1551 83.5965 10.0967 83.5965 7.5875C83.5965 6.80625 83.7918 6.05547 84.152 5.40918C84.2123 5.28867 84.2869 5.16895 84.3625 5.06348C84.3625 5.04824 84.3625 5.03379 84.3777 5.03379C85.2039 3.81621 86.601 3.00508 88.1635 3.00508C89.7412 3.00508 91.1389 3.81621 91.9652 5.03379C91.9797 5.03379 91.9797 5.04824 91.9797 5.06348C92.0551 5.16875 92.1301 5.28867 92.1902 5.40918C92.5512 6.05547 92.7465 6.80625 92.7465 7.5875C92.7465 10.0967 90.6879 12.1551 88.1635 12.1551Z" fill="#FF7875"/>
</g>
<defs>
<clipPath id="clip0">
<rect width="100" height="100" fill="white"/>
</clipPath>
</defs>
</svg>
