<svg width="58" height="58" viewBox="0 0 58 58" fill="none" xmlns="http://www.w3.org/2000/svg">
<g clip-path="url(#clip0)">
<path d="M56.6491 4.99414H1.37515C0.727322 4.99414 0.205078 5.51638 0.205078 6.16477V51.8508C0.205078 52.4992 0.727322 53.0302 1.37515 53.0302H56.649C57.2974 53.0302 57.8195 52.4992 57.8195 51.8508V6.16477C57.8196 5.51638 57.2974 4.99414 56.6491 4.99414ZM28.625 12.4304C28.625 10.8277 29.9306 9.52262 31.5328 9.52262C33.1442 9.52262 34.4497 10.8277 34.4497 12.4304C34.4497 14.0418 33.1442 15.3469 31.5328 15.3469C29.9306 15.3468 28.625 14.0418 28.625 12.4304ZM36.9521 12.4304C36.9521 10.8277 38.2484 9.52262 39.8598 9.52262C41.4713 9.52262 42.7768 10.8277 42.7768 12.4304C42.7768 14.0418 41.4713 15.3469 39.8598 15.3469C38.2484 15.3468 36.9521 14.0418 36.9521 12.4304ZM45.2705 12.4304C45.2705 10.8277 46.5757 9.52262 48.1871 9.52262C49.7897 9.52262 51.0948 10.8277 51.0948 12.4304C51.0948 14.0418 49.7897 15.3469 48.1871 15.3469C46.5755 15.3468 45.2705 14.0418 45.2705 12.4304ZM51.518 19.1187V46.6623V46.7287H6.50667V19.1187H51.3985H51.518Z" fill="#D1D1D1"/>
<path d="M15.0542 34.7824L22.7998 38.6401C22.948 38.7096 23.0759 38.7492 23.1902 38.7605L23.257 38.7645C23.4589 38.7645 23.639 38.6691 23.7647 38.4955C23.8535 38.3724 23.9094 38.2129 23.9409 37.9939C23.9633 37.837 23.9757 37.6207 23.9757 37.345C23.9757 37.0475 23.9678 36.8119 23.9542 36.6369C23.937 36.4317 23.9063 36.2668 23.8597 36.1331C23.7956 35.9481 23.693 35.803 23.5546 35.7011C23.4711 35.6396 23.3639 35.5762 23.2307 35.5142L20.275 34.1437L18.4214 33.2716L23.3538 30.9596C23.4667 30.9029 23.5586 30.844 23.6377 30.7771C23.7523 30.6783 23.8369 30.5371 23.8877 30.3578C23.9238 30.2312 23.947 30.0748 23.9594 29.8791C23.97 29.7108 23.9757 29.483 23.9757 29.1952C23.9757 28.6884 23.9176 28.3683 23.788 28.1579C23.6596 27.9486 23.4474 27.8291 23.2056 27.8291C23.0741 27.8291 22.9397 27.863 22.7911 27.9347L15.0406 31.7803C14.9382 31.8392 14.849 31.9201 14.7756 32.0208C14.7035 32.1191 14.6494 32.2414 14.6152 32.3833C14.5915 32.4827 14.5708 32.6097 14.5546 32.7648C14.5397 32.9091 14.5322 33.0774 14.5322 33.27C14.5322 33.6537 14.5581 33.9421 14.6117 34.1534C14.6872 34.4476 14.8287 34.6554 15.0542 34.7824Z" fill="#D1D1D1"/>
<path d="M24.5514 42.3822C24.6929 42.4661 24.8758 42.5246 25.1105 42.5606C25.3031 42.5906 25.551 42.6063 25.8548 42.6063C26.0974 42.6063 26.2984 42.5966 26.4569 42.5782C26.6354 42.5571 26.7848 42.5254 26.9149 42.4806C27.0772 42.4244 27.2108 42.3444 27.3136 42.242C27.4116 42.143 27.4898 42.019 27.5497 41.8631L33.5787 24.8949C33.6314 24.716 33.646 24.5486 33.6217 24.3978C33.5972 24.2474 33.5149 24.0357 33.2622 23.8799C33.1215 23.7933 32.94 23.7335 32.707 23.6975C32.5179 23.6676 32.2683 23.6514 31.9571 23.6514C31.7223 23.6514 31.5228 23.6615 31.3571 23.6795C31.1689 23.7007 31.0156 23.7332 30.8876 23.7789C30.7258 23.8369 30.5918 23.9213 30.4903 24.0293C30.3888 24.137 30.3132 24.2694 30.2717 24.4043L24.2405 41.3403C24.1745 41.5263 24.1543 41.7007 24.1794 41.8577C24.2138 42.0736 24.3452 42.2595 24.5514 42.3822Z" fill="#D1D1D1"/>
<path d="M34.6896 35.5983C34.5565 35.6537 34.4496 35.7201 34.3657 35.7993C34.2567 35.8995 34.1762 36.0393 34.1266 36.2133C34.0905 36.3399 34.0672 36.4964 34.0549 36.692C34.0444 36.8605 34.0391 37.0881 34.0391 37.3755C34.0391 37.6006 34.0492 37.7857 34.0676 37.9321C34.0931 38.1325 34.1454 38.2911 34.2281 38.4186C34.3468 38.6007 34.5244 38.7119 34.7262 38.7317L34.7974 38.7352C34.931 38.7352 35.0677 38.6991 35.2136 38.6261L42.9258 34.8046C43.0484 34.7522 43.1539 34.6665 43.2387 34.5505C43.309 34.4543 43.3623 34.3382 43.4019 34.1936C43.43 34.0876 43.4533 33.9576 43.4701 33.801C43.4846 33.6604 43.4925 33.4938 43.4925 33.3008C43.4925 32.9135 43.4621 32.6186 43.3992 32.3993C43.3108 32.0938 43.1588 31.8898 42.9605 31.7988L35.2142 27.9355C35.0695 27.8634 34.9394 27.8225 34.7517 27.8066C34.5477 27.8066 34.3662 27.9016 34.2396 28.0752C34.1487 28.2018 34.0936 28.3649 34.0673 28.5882C34.0493 28.742 34.0392 28.9548 34.0392 29.226C34.0392 29.5201 34.0444 29.7529 34.055 29.924C34.0678 30.1332 34.0971 30.3011 34.1438 30.4355C34.2075 30.6215 34.3105 30.7679 34.4489 30.869C34.5416 30.9376 34.6546 31 34.7838 31.0562L37.7311 32.4229L39.593 33.2989L34.6896 35.5983Z" fill="#D1D1D1"/>
</g>
<defs>
<clipPath id="clip0">
<rect width="57.6145" height="57.6145" fill="white" transform="translate(0.205078 0.205078)"/>
</clipPath>
</defs>
</svg>
