<svg width="100" height="100" viewBox="0 0 100 100" fill="none" xmlns="http://www.w3.org/2000/svg">
<path d="M97.9684 8.3125H2.03086C0.906445 8.3125 0 9.21895 0 10.3443V89.6404C0 90.7658 0.906445 91.6875 2.03086 91.6875H97.9682C99.0936 91.6875 99.9998 90.7658 99.9998 89.6404V10.3443C100 9.21895 99.0936 8.3125 97.9684 8.3125ZM49.3277 21.2193C49.3277 18.4377 51.5938 16.1725 54.3746 16.1725C57.1715 16.1725 59.4375 18.4377 59.4375 21.2193C59.4375 24.0162 57.1715 26.2814 54.3746 26.2814C51.5938 26.2813 49.3277 24.0162 49.3277 21.2193ZM63.7809 21.2193C63.7809 18.4377 66.0309 16.1725 68.8277 16.1725C71.6246 16.1725 73.8906 18.4377 73.8906 21.2193C73.8906 24.0162 71.6246 26.2814 68.8277 26.2814C66.0309 26.2813 63.7809 24.0162 63.7809 21.2193ZM78.2189 21.2193C78.2189 18.4377 80.4842 16.1725 83.2811 16.1725C86.0627 16.1725 88.3279 18.4377 88.3279 21.2193C88.3279 24.0162 86.0627 26.2814 83.2811 26.2814C80.484 26.2813 78.2189 24.0162 78.2189 21.2193ZM89.0625 32.8281V80.6348V80.75H10.9375V32.8281H88.8551H89.0625Z" fill="#36CFC9"/>
<path d="M25.7732 60.015L39.217 66.7107C39.4742 66.8312 39.6963 66.9 39.8945 66.9197L40.0105 66.9265C40.3609 66.9265 40.6736 66.7609 40.8918 66.4597C41.0459 66.2461 41.143 65.9691 41.1976 65.589C41.2365 65.3168 41.258 64.9414 41.258 64.4629C41.258 63.9465 41.2443 63.5375 41.2207 63.2338C41.1908 62.8775 41.1375 62.5914 41.0566 62.3594C40.9453 62.0383 40.7674 61.7863 40.5271 61.6096C40.3822 61.5027 40.1961 61.3928 39.9648 61.2851L34.8348 58.9064L31.6176 57.3928L40.1785 53.3799C40.3746 53.2814 40.534 53.1791 40.6713 53.0631C40.8703 52.8916 41.017 52.6465 41.1053 52.3354C41.168 52.1156 41.2082 51.8441 41.2297 51.5045C41.248 51.2123 41.258 50.817 41.258 50.3174C41.258 49.4377 41.1572 48.8822 40.9322 48.517C40.7094 48.1537 40.341 47.9463 39.9213 47.9463C39.6932 47.9463 39.4598 48.0051 39.2019 48.1295L25.7496 54.8043C25.5719 54.9064 25.417 55.0469 25.2896 55.2217C25.1645 55.3924 25.0705 55.6047 25.0111 55.851C24.9701 56.0234 24.9342 56.2439 24.9061 56.5131C24.8801 56.7635 24.8672 57.0557 24.8672 57.3898C24.8672 58.0559 24.9121 58.5564 25.0051 58.9232C25.1361 59.4338 25.3818 59.7945 25.7732 60.015Z" fill="#36CFC9"/>
<path d="M42.2575 73.2059C42.5032 73.3516 42.8206 73.4531 43.228 73.5156C43.5622 73.5676 43.9925 73.5949 44.5198 73.5949C44.9409 73.5949 45.2897 73.5781 45.5649 73.5461C45.8747 73.5096 46.1341 73.4545 46.3599 73.3768C46.6415 73.2791 46.8733 73.1402 47.0518 72.9625C47.222 72.7908 47.3577 72.5756 47.4616 72.3049L57.9261 42.8537C58.0175 42.5432 58.0428 42.2525 58.0007 41.9908C57.9581 41.7299 57.8153 41.3623 57.3766 41.092C57.1325 40.9416 56.8175 40.8379 56.413 40.7754C56.0848 40.7234 55.6516 40.6953 55.1114 40.6953C54.704 40.6953 54.3577 40.7129 54.07 40.7441C53.7434 40.7809 53.4772 40.8373 53.2552 40.9166C52.9743 41.0174 52.7417 41.1639 52.5655 41.3514C52.3893 41.5383 52.2581 41.768 52.1862 42.0021L41.7179 71.3975C41.6034 71.7203 41.5683 72.0231 41.6118 72.2955C41.6716 72.6703 41.8997 72.993 42.2575 73.2059Z" fill="#36CFC9"/>
<path d="M59.8537 61.4311C59.6227 61.5272 59.4371 61.6424 59.2916 61.7799C59.1023 61.9537 58.9627 62.1965 58.8766 62.4985C58.8139 62.7182 58.7734 62.9899 58.7521 63.3293C58.7338 63.6217 58.7246 64.0168 58.7246 64.5156C58.7246 64.9063 58.7422 65.2276 58.7742 65.4817C58.8184 65.8295 58.9092 66.1049 59.0527 66.3262C59.2588 66.6422 59.567 66.8352 59.9172 66.8696L60.0408 66.8756C60.2727 66.8756 60.51 66.8129 60.7633 66.6864L74.149 60.0533C74.3619 59.9625 74.5449 59.8137 74.6922 59.6123C74.8143 59.4453 74.9066 59.244 74.9754 58.993C75.0242 58.809 75.0646 58.5832 75.0937 58.3115C75.1189 58.0674 75.1326 57.7783 75.1326 57.4434C75.1326 56.7711 75.0799 56.2592 74.9707 55.8785C74.8174 55.3483 74.5535 54.9943 74.2094 54.8363L60.7643 48.1309C60.5131 48.0057 60.2873 47.9348 59.9615 47.9072C59.6074 47.9072 59.2924 48.0721 59.0727 48.3734C58.9148 48.5932 58.8193 48.8762 58.7736 49.2637C58.7424 49.5307 58.7248 49.9 58.7248 50.3707C58.7248 50.8813 58.7338 51.2854 58.7523 51.5822C58.7744 51.9453 58.8254 52.2367 58.9064 52.4701C59.017 52.793 59.1957 53.0471 59.4359 53.2225C59.5969 53.3416 59.793 53.4498 60.0172 53.5475L65.1328 55.9195L68.3645 57.4401L59.8537 61.4311Z" fill="#36CFC9"/>
</svg>
