<svg width="100" height="100" viewBox="0 0 100 100" fill="none" xmlns="http://www.w3.org/2000/svg">
<path d="M73.2648 67.8317C73.2709 67.8317 73.2769 67.8317 73.2832 67.8317C75.8109 67.8354 77.9578 69.4695 78.7236 71.7385C78.7976 71.9561 78.9761 72.0559 79.1592 72.0619C79.1652 72.0619 79.1713 72.0651 79.1775 72.0651C79.1799 72.0651 79.183 72.0635 79.1859 72.0635C79.234 72.0619 79.2799 72.0545 79.3263 72.0406C79.3316 72.0391 79.3361 72.0375 79.3416 72.036C79.3896 72.0199 79.434 71.9963 79.4752 71.9658C79.4804 71.9621 79.4849 71.9598 79.4904 71.9561C79.5347 71.9209 79.5728 71.8783 79.6041 71.8264C79.6041 71.8264 79.6049 71.8248 79.6049 71.824C79.6377 71.7684 79.6629 71.7057 79.6726 71.6319C79.6986 71.435 79.7123 71.2344 79.7123 71.0315C79.7162 68.4832 77.6533 66.4172 75.1088 66.4141C74.358 66.4127 73.6492 66.5902 73.0228 66.9078C72.5592 67.1426 72.7445 67.8322 73.2648 67.8317Z" fill="#40A9FF"/>
<path d="M98.8793 93.4621L91.3393 85.9008L90.1857 84.7426L90.0027 84.552L89.9996 84.5557L89.982 84.5381V84.5389L89.9768 84.5342C89.9248 84.6105 89.8691 84.6838 89.8156 84.7602C89.5586 85.1293 89.2893 85.4879 89.0092 85.8373C88.8773 86.0014 88.743 86.1631 88.6064 86.3227C88.3318 86.6445 88.0473 86.9559 87.7527 87.258C87.6047 87.4106 87.4545 87.56 87.3019 87.7082C86.9686 88.0285 86.6252 88.3406 86.2688 88.6375C86.1705 88.7207 86.0713 88.8037 85.9705 88.8848C85.5365 89.2326 85.0879 89.5652 84.6232 89.8774C84.6064 89.8873 84.5904 89.9004 84.5729 89.9094L84.5752 89.9125C84.5691 89.917 84.5631 89.9223 84.5561 89.927L84.5568 89.9283C84.5545 89.9291 84.5529 89.9307 84.5508 89.9322L93.4594 98.867C94.2057 99.6139 95.1875 99.9924 96.164 99.9938C97.1467 99.9945 98.123 99.6199 98.8707 98.8746C100.373 97.383 100.377 94.9582 98.8793 93.4621Z" fill="#40A9FF"/>
<path d="M90.8453 73.5168C90.8477 71.5012 90.5004 69.5664 89.8658 67.7651C89.8559 67.736 89.8467 67.7078 89.8367 67.6795C89.7606 67.4658 89.6781 67.2561 89.5934 67.0471C89.5719 66.9922 89.5514 66.9381 89.5291 66.8838C89.4467 66.6856 89.3584 66.4895 89.269 66.2949C89.2408 66.2346 89.2156 66.1742 89.1873 66.1149C89.092 65.9127 88.9897 65.7143 88.8867 65.5168C88.8615 65.468 88.8379 65.4184 88.8121 65.3696C88.6885 65.1393 88.5594 64.9125 88.426 64.6883C88.4192 64.6762 88.4123 64.6639 88.4053 64.6524C86.7986 61.9645 84.4838 59.749 81.719 58.2629C81.6998 58.2524 81.6793 58.2424 81.6594 58.2324C81.432 58.1112 81.2016 57.9938 80.9682 57.8822C80.9498 57.8738 80.9317 57.8662 80.9133 57.8578C78.6893 56.808 76.2082 56.216 73.5899 56.2129C64.0617 56.1985 56.2988 63.9391 56.2852 73.4672C56.2707 82.9953 64.0113 90.7582 73.5395 90.7727C83.068 90.7858 90.8307 83.0449 90.8453 73.5168ZM83.1412 73.5061C83.1336 78.7862 78.8315 83.0754 73.5512 83.0678C68.2711 83.0602 63.9819 78.758 63.9895 73.4785C63.9971 68.1975 68.2992 63.9084 73.5787 63.916C78.8588 63.9237 83.1488 68.2258 83.1412 73.5061Z" fill="#40A9FF"/>
<path d="M54.7645 90.0782C54.7492 90.0934 54.718 90.1246 54.7018 90.1409C54.0396 90.2301 53.3773 90.2897 52.7152 90.3362C52.6785 90.337 52.6449 90.3407 52.6084 90.3414V87.2813C49.9832 83.3125 48.468 78.5625 48.468 73.4534C48.4832 68.3752 50.0145 63.6413 52.6397 59.6877V52.6413H59.6244C63.6084 49.9696 68.4049 48.4071 73.5615 48.4071C77.2799 48.4071 80.8268 49.2036 84.1547 50.7508L84.3271 50.8286C84.6393 50.985 84.952 51.1252 85.2486 51.2969L85.4828 51.4221C86.1863 51.7975 86.8736 52.2034 87.5299 52.6717H90.1811L90.326 52.6731C90.2795 53.3446 90.217 54.0166 90.1391 54.6873C92.0457 56.3436 93.7172 58.344 95.0453 60.5465L95.2018 60.7969C95.3734 61.0936 95.5451 61.3752 95.7016 61.6719L95.8418 61.9688C95.967 62.203 96.1072 62.4846 96.2484 62.7813L96.3734 63.0315C96.4979 63.3284 96.623 63.6092 96.748 63.8905L96.857 64.1721C96.951 64.4225 97.076 64.7344 97.1857 65.0473L97.2635 65.25C97.3107 65.3926 97.3582 65.5278 97.4062 65.6661L97.4215 65.7873C97.426 65.7737 97.4299 65.7614 97.4336 65.7477C97.4396 65.7645 97.4451 65.7797 97.4512 65.7973C97.8883 64.4532 98.2949 63.0944 98.6229 61.7036C99.5133 57.9538 99.9977 54.0475 99.9977 50.0321C99.9977 46.0161 99.5293 42.1098 98.6381 38.3754C97.6379 34.235 96.1379 30.2823 94.185 26.6102C88.685 16.1887 79.732 8.12602 68.951 3.73539C68.8885 3.70414 68.8107 3.67289 68.748 3.64164C68.4352 3.51645 68.1385 3.40746 67.8266 3.29828C62.2953 1.17289 56.3109 0.00101816 50.0449 0.00101816C43.6586 -0.00718496 37.5512 1.19809 31.9307 3.38539C31.7414 3.45785 31.5514 3.52582 31.3639 3.60063C31.2082 3.66391 31.0557 3.73188 30.9008 3.79672C20.223 8.19164 11.3303 16.1979 5.86309 26.5356C3.90312 30.209 2.38711 34.1534 1.39082 38.2977C0.48457 42.0475 0 45.9536 0 49.9696C0 53.9688 0.468359 57.8911 1.35957 61.6256C2.35898 65.7659 3.8748 69.7188 5.82793 73.3907C11.2967 83.7496 20.1869 91.7811 30.89 96.187C31.0152 96.2496 31.1555 96.3121 31.2959 96.3594C31.5309 96.4534 31.7803 96.5463 32.0145 96.6403C37.593 98.7969 43.6398 99.9842 49.9678 99.9993C54.5111 99.9993 58.8971 99.3692 63.0824 98.2254C64.0307 97.9737 64.9799 97.725 65.9105 97.4198C65.8969 97.4153 65.8832 97.4092 65.8695 97.4045C65.8863 97.3993 65.9039 97.3955 65.9207 97.3901C61.5613 96 57.7178 93.4373 54.7645 90.0782ZM47.326 90.343C46.6232 90.2957 45.9359 90.2186 45.2492 90.1409C42.2959 87.2342 38.6713 82.6877 35.4998 77.0155C34.2494 74.7815 33.0621 72.3752 32.0307 69.8127C29.9211 64.5944 28.4061 58.7663 28.0619 52.6256L47.3586 52.6416L47.3273 88.0155V90.2266L47.326 90.343ZM9.67148 52.61H21.7029C21.9684 57.7498 22.9688 62.7661 24.4838 67.5002C25.3275 70.1407 26.3277 72.7034 27.4523 75.1409C29.1398 78.8434 31.093 82.2498 33.1559 85.2969C33.4703 85.7577 33.7844 86.2186 34.0988 86.6801C34.2391 86.8983 34.385 87.1096 34.5184 87.3383C25.0232 83.3965 17.3527 75.9389 13.1246 66.5938C11.8275 63.7342 10.8594 60.6879 10.265 57.5317C9.95312 55.9219 9.78086 54.2817 9.67148 52.61ZM9.67148 47.326C9.79668 45.6553 9.96836 43.9998 10.2812 42.3914C10.8748 39.2352 11.8438 36.2192 13.1406 33.3598V33.3446C17.4062 23.9698 25.1246 16.5006 34.6713 12.5793C32.0773 16.1102 29.5779 20.2506 27.4838 24.8289C26.3744 27.2512 25.3742 29.8131 24.5152 32.4543C23 37.1723 21.9686 42.1877 21.7031 47.3284H10.5314L9.67148 47.326ZM28.0941 47.3444L28.0621 47.3428C28.4215 41.1875 29.9375 35.3747 32.0621 30.1411C33.0938 27.6104 34.2807 25.2041 35.5305 22.9541C38.718 17.2819 42.3586 12.7356 45.3121 9.84477C45.9994 9.76625 46.6867 9.68832 47.3902 9.64184L47.359 47.2977V47.3594L29.0312 47.3442H28.0941V47.3444ZM52.6397 47.3596L52.6709 9.64203C53.3744 9.68852 54.0619 9.76645 54.7492 9.84496C57.7025 12.751 61.3426 17.2981 64.5146 22.985C65.749 25.2196 66.9361 27.6258 67.9676 30.1725C70.0459 35.2979 71.5457 41.0159 71.9203 47.0317C71.9203 47.1567 71.9363 47.2659 71.9516 47.3758L52.7021 47.3598H52.6397V47.3596ZM78.2955 47.3756C78.0459 42.235 77.0297 37.2034 75.5146 32.4696C74.6709 29.8291 73.6555 27.2817 72.5613 24.86C70.468 20.2825 67.9678 16.1413 65.3898 12.5946C74.9211 16.5319 82.6549 24.0325 86.9051 33.4073C88.1707 36.2659 89.1389 39.2977 89.7332 42.4539C90.0277 43.9432 90.1916 45.476 90.3016 47.0231C90.3084 47.1491 90.3184 47.261 90.3244 47.3907L78.2955 47.3756Z" fill="#40A9FF"/>
</svg>
