<svg width="101" height="101" viewBox="0 0 101 101" fill="none" xmlns="http://www.w3.org/2000/svg">
<path d="M50.1055 12.625L49.8088 12.7228L15.09 20.4178L12.625 21.008V79.992L15.09 80.5822L49.8088 88.2772L50.1055 88.375H56.8125V78.9062H88.375V22.0938H56.8125V12.625H50.1055ZM50.5 19.0353V81.9678L18.9375 75.0556V25.9444L50.5 19.0353ZM56.8125 28.4062H82.0625V72.5938H56.8125V66.2812H63.125V59.9688H56.8125V56.8125H63.125V50.5H56.8125V47.3438H63.125V41.0312H56.8125V37.875H63.125V31.5625H56.8125V28.4062ZM66.2812 31.5625V37.875H78.9062V31.5625H66.2812ZM44.6799 34.7188L37.4805 35.6057L33.5352 44.0897C33.1154 45.308 32.8092 46.2359 32.6482 46.8514H32.5504C32.3533 45.9452 32.0896 45.0548 31.7613 44.1875L29.7855 36.8871L23.0817 37.6762L22.785 37.875L28.4062 50.5L22.0938 63.125L28.8986 63.9141L31.6603 56.1213C31.9949 55.1365 32.2663 54.3348 32.3516 53.8551H32.4494C32.6356 54.8777 32.7587 55.6415 32.9418 56.0234L37.1838 65.2965L44.8819 66.2812L36.4989 50.4022L44.6799 34.7188ZM66.2812 41.0312V47.3438H78.9062V41.0312H66.2812ZM66.2812 50.5V56.8125H78.9062V50.5H66.2812ZM66.2812 59.9688V66.2812H78.9062V59.9688H66.2812Z" fill="#52C41A"/>
</svg>
