<svg width="91" height="91" viewBox="0 0 91 91" fill="none" xmlns="http://www.w3.org/2000/svg">
<path d="M90.0082 83.0312C90.0017 85.1362 89.1626 87.1531 87.6742 88.6416C86.1857 90.1301 84.1687 90.9691 82.0637 90.9756H7.95258C5.84758 90.9691 3.83063 90.1301 2.34216 88.6416C0.85369 87.1531 0.0146191 85.1362 0.00816203 83.0312V8.92C0.00816203 4.54996 3.58254 0.975586 7.95258 0.975586H82.0637C86.4338 0.975586 90.0082 4.54996 90.0082 8.92V83.0312ZM90.0082 29.2523L81.8801 23.7765C82.2493 22.2182 82.2213 20.5922 81.7987 19.0475C81.376 17.5029 80.5723 16.0891 79.4612 14.9358C78.3501 13.7825 76.9672 12.9267 75.4394 12.4468C73.9115 11.967 72.2877 11.8784 70.7167 12.1893C69.1457 12.5002 67.678 13.2006 66.4481 14.2262C65.2182 15.2518 64.2655 16.5698 63.6774 18.0594C63.0893 19.5489 62.8846 21.1623 63.0822 22.7515C63.2797 24.3406 63.8731 25.8548 64.808 27.155L47.234 54.0281C45.7758 53.6744 44.2546 53.6704 42.7945 54.0165C41.3345 54.3625 39.9769 55.0488 38.8326 56.0193L27.069 49.2501C27.1302 48.8175 27.171 48.3809 27.171 47.9321C27.1707 46.5164 26.8562 45.1183 26.25 43.8389C25.6439 42.5595 24.7613 41.4306 23.6659 40.5337C22.5705 39.6368 21.2896 38.9942 19.9158 38.6524C18.5419 38.3106 17.1093 38.2781 15.7213 38.5571C14.3334 38.8362 13.0247 39.4199 11.8897 40.2662C10.7547 41.1124 9.82173 42.2001 9.15812 43.4507C8.49452 44.7013 8.11682 46.0836 8.05229 47.4978C7.98776 48.9121 8.238 50.3231 8.78497 51.6289L0 59.7773V68.448L13.0489 56.3417C14.8132 57.3003 16.8353 57.6769 18.8263 57.4174C20.8174 57.158 22.6755 56.276 24.1352 54.8972L35.6132 61.5033C35.3093 63.0719 35.4034 64.6917 35.8869 66.2146C36.3705 67.7375 37.2279 69.1149 38.381 70.2209C39.5341 71.327 40.946 72.1264 42.4877 72.5461C44.0294 72.9658 45.6517 72.9924 47.2063 72.6234C48.7609 72.2545 50.1983 71.5019 51.387 70.4342C52.5758 69.3666 53.478 68.018 54.0111 66.5118C54.5443 65.0056 54.6915 63.3898 54.4392 61.8121C54.187 60.2343 53.5433 58.7449 52.567 57.4801L70.0186 30.7947C71.4555 31.1966 72.9669 31.255 74.4306 30.9651C75.8942 30.6752 77.2692 30.0452 78.4445 29.1258L90.0041 36.9152V29.2523H90.0082Z" fill="#FF7A45"/>
</svg>
