<svg width="100" height="101" viewBox="0 0 100 101" fill="none" xmlns="http://www.w3.org/2000/svg">
<g clip-path="url(#clip0)">
<path fill-rule="evenodd" clip-rule="evenodd" d="M50 100.977C22.3844 100.977 0 78.5922 0 50.9766C0 23.3609 22.3844 0.976562 50 0.976562C77.6156 0.976562 100 23.3609 100 50.9766C100 78.5922 77.6156 100.977 50 100.977ZM76.5625 61.1859V35.5609L50 19.7266L23.4375 35.5609V66.6703L50 82.2266L71.9219 69.3891L48.3656 55.4203L52.6312 53.0609V28.3734L70.5688 39.0672V50.4203L64.9844 47.1234L63.4844 53.3391L76.5625 61.1859ZM29.4313 39.0703L46.675 28.7891V49.3141L29.4313 59.3141V39.0703ZM42.2344 58.8953L59.9219 69.3734L50 75.1797L32.4281 64.8891L42.2344 58.8922V58.8953Z" fill="#9254DE"/>
</g>
<defs>
<clipPath id="clip0">
<rect width="100" height="100" fill="white" transform="translate(0 0.976562)"/>
</clipPath>
</defs>
</svg>
