<svg width="50" height="58" viewBox="0 0 50 58" fill="none" xmlns="http://www.w3.org/2000/svg">
<path d="M43.1286 48.094C41.8892 44.9192 41.5723 42.7847 41.5048 42.2054C41.4787 41.9834 41.5463 41.7688 41.6947 41.6011C44.5983 38.3247 53.5195 26.5771 46.4172 12.9642C45.9104 11.9925 45.3373 11.1024 44.7347 10.2516C44.6875 10.185 44.6411 10.1179 44.593 10.0516C44.2981 9.64452 43.9953 9.24898 43.6804 8.86931C43.6487 8.83094 43.6155 8.79392 43.5833 8.75588C42.6558 7.6513 41.65 6.66409 40.5798 5.78817C40.405 5.6438 40.2334 5.49537 40.0541 5.35629C39.84 5.19121 39.6209 5.03626 39.402 4.87996C39.0939 4.65647 38.7813 4.43974 38.4616 4.23179C38.3163 4.13828 38.1711 4.04691 38.0245 3.95677C37.5896 3.68749 37.1451 3.43228 36.6912 3.19034C36.6395 3.163 36.5888 3.1343 36.5367 3.1073C34.3998 1.98854 32.0713 1.17181 29.5959 0.704365C29.3165 0.650014 29.0375 0.61513 28.7576 0.570119C28.5025 0.530284 28.2503 0.481784 27.9921 0.449151C25.5307 0.125069 23.0919 0.144537 20.8205 0.479196C13.6004 1.54225 5.54706 7.49084 4.56886 15.6055C4.25265 18.224 4.37328 20.1838 4.49076 21.4204C4.56841 22.2799 4.43337 22.5387 3.93228 23.501C3.70137 23.9452 3.44177 24.4458 3.17249 25.0701C2.64485 26.2926 2.31638 27.1385 1.88686 28.2471C1.7031 28.7213 1.49965 29.2444 1.25591 29.8629C0.757859 31.1096 0.993268 32.0885 1.27808 32.6899C2.00962 34.2347 3.69429 34.7679 4.92512 35.1573C5.1234 35.2205 5.31717 35.281 5.48011 35.3388C5.49339 35.3445 5.50487 35.348 5.51815 35.3543C5.15828 35.9975 5.06601 36.7061 5.24706 37.476C5.31233 37.7445 5.4082 37.9821 5.52512 38.1922C5.4064 38.7758 5.42047 39.6314 6.03949 40.5807C6.12996 40.7233 6.22797 40.842 6.32509 40.9459C6.04557 42.2964 5.48585 45.6601 8.14489 47.6847C9.42918 48.6671 11.2185 48.6481 12.6526 48.6454C12.8853 48.6433 13.1104 48.6415 13.3214 48.6454C14.6759 48.6692 15.92 48.649 16.9594 48.6321C17.6136 48.622 18.2008 48.6135 18.6335 48.614C18.7412 48.8661 18.9055 49.3327 19.1028 50.1671C19.6595 52.4903 19.9902 54.0204 20.1455 55.4482L20.3349 57.1842C20.3852 57.6446 20.8479 57.9405 21.2867 57.7929L43.3731 50.3662C43.6821 50.2624 43.8416 49.9208 43.7233 49.617L43.1286 48.094ZM23.9683 52.3937C23.7608 51.3483 23.5087 50.2719 23.2478 49.1801C22.7467 47.0654 22.0121 45.0332 20.0519 44.487L19.9371 44.4589C19.8037 44.4297 19.5834 44.3904 19.2691 44.3736C19.0056 44.3603 18.7049 44.3555 18.3654 44.3555C17.9367 44.3555 17.4461 44.3634 16.8904 44.3722C15.89 44.3878 14.6944 44.4076 13.3964 44.3855C13.1522 44.3808 12.8935 44.382 12.6237 44.3847C12.049 44.3864 10.9748 44.3958 10.7298 44.2981C10.0737 43.7983 10.4203 42.1702 10.5338 41.635L10.5668 41.4782C10.7483 40.6063 10.657 39.8161 10.2861 39.1083L12.0733 37.8391C12.4043 37.6038 12.3457 37.0956 11.9695 36.9419L9.91001 36.1013C9.95379 35.9516 9.98901 35.8011 10.0156 35.6492C10.156 34.8788 10.5834 32.5348 8.62933 31.7998C8.40101 31.7149 8.08582 31.6329 7.72865 31.5485C7.48098 31.4907 7.19752 31.4284 6.91372 31.326C6.69114 31.2479 6.45371 31.1723 6.21087 31.0956C5.99583 31.0275 5.70359 30.9348 5.44928 30.8413C5.59984 30.4562 5.73397 30.1105 5.85944 29.7873C6.26916 28.7305 6.58165 27.923 7.08409 26.7583C7.30577 26.2454 7.5216 25.8343 7.71188 25.4683C8.3075 24.324 8.92382 23.1403 8.73297 21.0273C8.63327 19.9774 8.5321 18.3259 8.7988 16.1157C9.44561 10.749 15.1174 5.62501 21.4418 4.69383C26.9097 3.88723 37.5289 5.13798 42.6405 14.935C48.4832 26.1344 40.9532 36.0136 38.5059 38.7752C37.556 39.848 37.1064 41.2788 37.2733 42.7004C37.3568 43.4143 37.6203 45.1136 38.4079 47.5409L25.663 51.826L23.9683 52.3937Z" fill="#D1D1D1"/>
<path d="M39.3297 24.0623C40.0652 23.0566 40.8435 21.2951 40.3751 18.6148C39.5133 13.6868 36.3853 10.3973 31.0773 8.83753C30.5338 8.67774 29.9837 8.5435 29.4425 8.43896C23.8452 7.35644 19.7817 9.46724 17.8577 10.8216C15.1302 12.742 14.105 15.6525 14.056 17.561C14.0127 19.2275 14.55 22.0443 18.2748 23.5325C18.3967 23.5811 18.4894 23.6813 18.5265 23.8072C18.7976 24.7237 19.3401 25.85 20.44 26.6274C20.4479 26.6331 20.4558 26.6384 20.4637 26.6437C20.6341 26.763 20.8191 26.872 21.0183 26.9717C21.0192 26.9722 21.0201 26.9722 21.021 26.9731C21.4059 27.165 21.8311 27.3284 22.3344 27.4257C22.6173 27.4803 22.9157 27.5148 23.2209 27.5276C24.3498 27.5752 25.2323 27.4437 25.9149 27.2353C26.1656 27.159 26.4252 27.3156 26.4584 27.5757C26.5556 28.3465 26.6504 29.2758 26.7286 30.3434L26.8452 31.9433C26.8612 32.161 27.0394 32.331 27.2572 32.3362L28.8612 32.3777C29.2899 32.3887 29.7591 32.4192 29.7635 32.4197L31.3512 32.5225C31.5675 32.5367 31.7591 32.3857 31.7961 32.1724L32.069 30.6051L32.1427 30.1827C32.1785 29.9769 32.3585 29.8352 32.5669 29.8317C34.121 29.8056 35.0997 29.1082 35.5907 28.6287C36.2931 27.9426 36.6895 27.0777 36.8768 26.2247C36.9046 26.0989 36.9845 25.9938 37.0994 25.9355C37.8462 25.5551 38.6687 24.9666 39.3297 24.0623ZM20.2545 21.8593L22.2735 19.8047C22.4112 19.6647 22.6271 19.6373 22.7954 19.7393L27.1035 22.3454C27.3873 22.5172 27.7498 22.3106 27.7467 21.9785L27.7035 17.5508C27.7012 17.3084 27.9022 17.1133 28.1445 17.123L31.4433 17.2568C31.6773 17.266 31.8747 17.0842 31.8839 16.8501L31.8852 16.8202C31.8949 16.5861 31.7131 16.3888 31.479 16.3795L27.2575 16.2083C27.0151 16.1986 26.8143 16.3937 26.8164 16.6361L26.8531 20.4118C26.8562 20.7437 26.4937 20.9504 26.2099 20.7787L22.6554 18.6282C22.5425 18.5602 22.4153 18.5699 22.2974 18.6128C22.2805 18.6188 22.2656 18.6282 22.2497 18.6365C22.2107 18.6564 22.1657 18.6613 22.1335 18.6939L19.497 21.3777C19.3778 21.4987 19.1951 21.5402 19.0379 21.4765C17.0308 20.6694 16.2026 19.3565 16.2507 17.6086C16.294 17.508 16.3337 17.4152 16.3769 17.3145L17.0613 16.6108C17.1708 16.4981 17.3199 16.4643 17.455 16.4937C17.4617 16.4951 17.467 16.4981 17.4736 16.4995C17.6048 16.5348 17.7213 16.6289 17.7686 16.7763L18.3624 18.6178C18.467 18.9431 18.8939 19.0169 19.1019 18.7459L20.6802 16.6903C20.8033 16.5296 21.0232 16.4789 21.2047 16.5689L24.5631 18.2359C24.7729 18.3401 25.0271 18.2545 25.1314 18.0448L25.1447 18.0179C25.2489 17.8077 25.1632 17.5534 24.9535 17.4497L20.9483 15.4616C20.7669 15.3716 20.547 15.4224 20.4233 15.583L19.4247 16.8841C19.2163 17.1552 18.7899 17.0815 18.6848 16.756L18.1568 15.1177C18.0588 14.8136 17.6725 14.723 17.4494 14.9522L17.0341 15.3796L16.6706 15.731C17.1139 14.618 17.9139 13.4671 19.1214 12.6167C20.5248 11.6287 22.3858 10.7682 24.6206 10.46C24.6687 10.4534 24.7159 10.4574 24.7614 10.4671C24.7782 10.4705 24.7922 10.4776 24.8082 10.4829C24.8842 10.5081 24.9512 10.5531 25.0024 10.615C25.0139 10.6288 25.0227 10.6433 25.0324 10.6582C25.0536 10.6922 25.0743 10.7271 25.0858 10.7669L25.2942 11.4967C25.3679 11.7542 25.1873 12.0141 24.9207 12.0357L21.5799 12.3046C21.202 12.3351 21.051 12.8089 21.342 13.0521L24.5684 15.7513C24.7481 15.9014 25.0152 15.8775 25.1657 15.6979L25.1852 15.6745C25.3353 15.4953 25.3114 15.2278 25.1323 15.0777L23.5517 13.7554C23.2603 13.5121 23.4113 13.0384 23.7892 13.0079L26.0593 12.8255C26.326 12.8039 26.5065 12.5439 26.4328 12.2865L26.0311 10.8795C25.953 10.6058 26.1609 10.3373 26.4461 10.3382C27.2664 10.3417 28.1263 10.4204 29.0257 10.5942C29.4932 10.6848 29.9709 10.8004 30.4583 10.9434C34.2246 12.0507 36.2043 13.9446 37.2572 16.0299C37.3447 16.2025 37.2979 16.4118 37.1503 16.5372C36.8368 16.8048 36.3248 17.2696 35.4492 18.0864C35.2775 18.2461 35.2669 18.5164 35.4272 18.6876L35.448 18.7101C35.6073 18.8806 35.8749 18.8899 36.0458 18.7309C36.4745 18.3322 36.9061 17.9358 37.2554 17.6202C37.368 17.5187 37.5128 17.4948 37.6426 17.5279C37.6541 17.5309 37.6651 17.5353 37.6766 17.5394C37.8015 17.5827 37.9089 17.6793 37.9495 17.8233C38.0582 18.2135 38.1446 18.6042 38.2121 18.9928C38.843 22.6002 36.6405 23.8475 35.467 24.2501C35.2264 24.3331 34.9685 24.1909 34.9125 23.9428L34.5019 22.1137C34.4502 21.8855 34.2237 21.7421 33.9955 21.7933L33.9654 21.7998C33.7372 21.851 33.5938 22.078 33.645 22.3062L33.6935 22.5217L33.7027 22.5905L32.4785 22.3534C32.2489 22.3093 32.0264 22.4594 31.9818 22.6894L31.9761 22.719C31.9319 22.949 32.0821 23.1716 32.3121 23.2157L33.6468 23.474C33.8123 23.5062 33.9429 23.633 33.9796 23.7972L34.4635 25.9498L34.513 26.1798H34.5151L34.5191 26.1971L34.5823 26.1755L34.6053 26.1741C34.2652 27.0999 33.4525 27.8938 31.7378 27.5617C31.4817 27.5123 31.2058 27.4377 30.9083 27.3347C30.6627 27.25 30.3974 27.4049 30.3533 27.6611L29.9709 29.8569C29.9342 30.068 29.7474 30.2191 29.5334 30.2079C29.4597 30.204 29.3788 30.2005 29.2942 30.1964C29.08 30.1872 28.9061 30.0175 28.8893 29.8039C28.7824 28.4529 28.6446 27.2733 28.5021 26.3436L28.6407 26.2283L30.6061 25.0367C30.7558 24.9458 30.8345 24.7727 30.804 24.6005L30.2579 21.4945C30.2269 21.3184 30.3098 21.1418 30.4658 21.0531L32.0239 20.1657C32.227 20.0495 32.298 19.7908 32.1819 19.5873L32.1672 19.5613C32.0512 19.3577 31.7925 19.287 31.5894 19.4027L30.5678 19.9841C30.3131 20.1294 29.9916 19.9784 29.9409 19.6897L29.7228 18.449C29.6822 18.2186 29.4623 18.0645 29.2318 18.1051L29.2019 18.1104C28.9714 18.1511 28.8173 18.3708 28.8579 18.6013L29.8353 24.1605C29.8654 24.3327 29.7873 24.5058 29.6375 24.5967L28.6628 25.1875L28.3352 25.3791C28.3109 25.2572 28.2866 25.1385 28.2628 25.0339C28.2588 25.0281 28.25 25.0242 28.2354 25.0215C28.1247 24.9999 27.7087 25.0541 27.1162 24.9393C26.9038 24.8983 26.6685 24.8351 26.416 24.7393C26.2801 24.6877 26.1295 24.6991 26.0116 24.7844C25.703 25.0069 24.9215 25.4021 23.3136 25.334C23.1119 25.3256 22.9247 25.3036 22.7512 25.2699C22.7451 25.2687 22.7393 25.2678 22.7331 25.2665C22.2634 25.1728 22.3181 24.4766 22.7954 24.4369L24.055 24.3318C24.2842 24.3123 24.4562 24.1142 24.4426 23.8846L24.3375 22.0696C24.3242 21.8356 24.1238 21.6572 23.8899 21.6709L23.8599 21.6727C23.6259 21.686 23.4475 21.8863 23.4608 22.1199L23.5164 23.081C23.5301 23.3106 23.3579 23.5089 23.1287 23.5278L21.1368 23.6938C20.9416 23.7102 20.7611 23.59 20.6976 23.4055C20.4896 22.8006 20.4366 22.2094 20.3642 21.8947C20.3395 21.8889 20.3165 21.8823 20.2931 21.8756L20.2545 21.8593Z" fill="#D1D1D1"/>
<path d="M33.2168 15.9441L32.9074 20.0637C32.8932 20.2536 33.0071 20.4297 33.1863 20.4941L37.1964 21.9406C37.4167 22.02 37.66 21.9057 37.739 21.6854L37.7496 21.6567C37.829 21.4363 37.7147 21.1936 37.4945 21.1141L34.1122 19.8943C33.9328 19.8293 33.819 19.6537 33.8331 19.4637L34.1616 15.0903C34.1797 14.8488 33.9922 14.6409 33.7497 14.6347L31.0632 14.5654C30.8703 14.5601 30.7051 14.4258 30.661 14.2378L30.2331 12.4038C30.1798 12.1756 29.9519 12.0344 29.7242 12.0873L29.6941 12.0944C29.4663 12.1472 29.3246 12.3756 29.378 12.6033L29.3846 12.6329C29.4411 12.8749 29.279 13.1129 29.0336 13.149L26.9573 13.4531C26.7255 13.4871 26.5653 13.7022 26.5993 13.934L26.6037 13.9644C26.6376 14.1957 26.8527 14.3564 27.0845 14.3224L29.3043 13.9971C29.5224 13.9649 29.7286 14.1052 29.7785 14.3198L29.9604 15.0982C30.0042 15.2858 30.1692 15.4205 30.3621 15.4253L32.8049 15.4889C33.0473 15.4952 33.2349 15.7027 33.2168 15.9441Z" fill="#D1D1D1"/>
</svg>
