<svg width="100" height="100" viewBox="0 0 100 100" fill="none" xmlns="http://www.w3.org/2000/svg">
<path d="M81.4084 83.0992C79.2572 77.5888 78.7072 73.884 78.59 72.8785C78.5447 72.4931 78.6621 72.1207 78.9195 71.8297C83.9593 66.143 99.4435 45.7529 87.1164 22.1254C86.2367 20.4388 85.242 18.8939 84.1961 17.4172C84.114 17.3015 84.0336 17.1851 83.9502 17.0701C83.4382 16.3634 82.9127 15.6769 82.3662 15.0179C82.3111 14.9513 82.2535 14.8871 82.1976 14.8211C80.5877 12.9039 78.842 11.1904 76.9845 9.67009C76.681 9.4195 76.3832 9.16189 76.072 8.92048C75.7004 8.63396 75.3201 8.36501 74.9402 8.09372C74.4054 7.70583 73.8629 7.32966 73.308 6.96872C73.0558 6.80642 72.8037 6.64782 72.5494 6.49138C71.7945 6.02399 71.023 5.58103 70.2351 5.1611C70.1455 5.11364 70.0574 5.06384 69.967 5.01696C66.258 3.07517 62.2166 1.65759 57.9201 0.84626C57.4351 0.751924 56.9508 0.691377 56.465 0.613252C56.0222 0.544111 55.5845 0.459931 55.1363 0.403291C50.8642 -0.159209 46.6312 -0.12542 42.6888 0.455439C30.157 2.30056 16.1791 12.6254 14.4812 26.7097C13.9324 31.2547 14.1418 34.6562 14.3457 36.8025C14.4805 38.2943 14.2461 38.7435 13.3763 40.4138C12.9756 41.1847 12.525 42.0537 12.0576 43.1373C11.1418 45.2592 10.5717 46.7273 9.82616 48.6515C9.50721 49.4746 9.15409 50.3824 8.73104 51.456C7.86659 53.6199 8.27518 55.3189 8.76952 56.3627C10.0392 59.0439 12.9633 59.9695 15.0996 60.6453C15.4437 60.7551 15.7801 60.8599 16.0629 60.9603C16.0859 60.9703 16.1058 60.9763 16.1289 60.9873C15.5043 62.1037 15.3441 63.3336 15.6584 64.6699C15.7717 65.1359 15.9381 65.5482 16.141 65.9129C15.9349 66.9258 15.9594 68.4109 17.0338 70.0586C17.1908 70.306 17.3609 70.5121 17.5295 70.6924C17.0443 73.0365 16.0728 78.8748 20.6881 82.3888C22.9172 84.0939 26.0228 84.0609 28.5119 84.0562C28.9158 84.0525 29.3066 84.0494 29.6728 84.0562C32.0238 84.0976 34.1832 84.0625 35.9871 84.0332C37.1226 84.0156 38.1418 84.001 38.8929 84.0017C39.0799 84.4392 39.365 85.2492 39.7074 86.6974C40.6736 90.7297 41.2476 93.3855 41.5172 95.8637L41.8459 98.8767C41.9332 99.676 42.7363 100.189 43.498 99.9334L81.8328 87.043C82.3691 86.8629 82.6459 86.2699 82.4406 85.7426L81.4084 83.0992ZM48.1523 90.5621C47.7922 88.7476 47.3547 86.8793 46.9017 84.9844C46.032 81.3139 44.757 77.7867 41.3547 76.8387L41.1554 76.7898C40.924 76.7392 40.5416 76.6709 39.9961 76.6418C39.5387 76.6187 39.0168 76.6103 38.4275 76.6103C37.6834 76.6103 36.832 76.624 35.8674 76.6394C34.131 76.6664 32.0558 76.7008 29.8029 76.6625C29.3791 76.6543 28.9301 76.6564 28.4619 76.6611C27.4642 76.664 25.5998 76.6803 25.1746 76.5107C24.0359 75.6433 24.6375 72.8174 24.8344 71.8885L24.8918 71.6164C25.2068 70.1029 25.0482 68.7314 24.4045 67.5029L27.5064 65.3C28.081 64.8916 27.9793 64.0096 27.3263 63.7428L23.7517 62.2838C23.8277 62.024 23.8888 61.7627 23.9349 61.499C24.1787 60.1619 24.9205 56.0935 21.5289 54.8177C21.1326 54.6705 20.5855 54.5281 19.9656 54.3816C19.5357 54.2812 19.0437 54.1732 18.5512 53.9955C18.1648 53.8599 17.7527 53.7287 17.3312 53.5955C16.958 53.4773 16.4508 53.3164 16.0094 53.1541C16.2707 52.4857 16.5035 51.8857 16.7213 51.3248C17.4324 49.4904 17.9748 48.0888 18.8469 46.0674C19.2316 45.1771 19.6062 44.4636 19.9365 43.8283C20.9703 41.8422 22.04 39.7877 21.7088 36.1203C21.5357 34.298 21.3601 31.4314 21.823 27.5953C22.9457 18.2804 32.79 9.38689 43.7672 7.77067C53.2576 6.37067 71.689 8.54157 80.5611 25.5461C90.7021 44.9846 77.6326 62.1316 73.3849 66.9248C71.7361 68.7869 70.9558 71.2703 71.2455 73.7377C71.3904 74.9767 71.8478 77.9262 73.2148 82.1392L51.0937 89.5767L48.1523 90.5621Z" fill="#FFC069"/>
<path d="M74.8142 41.3877C76.0907 39.6422 77.4417 36.5848 76.6286 31.9327C75.1329 23.3793 69.7036 17.6698 60.4907 14.9625C59.5474 14.6852 58.5927 14.4522 57.6532 14.2707C47.9382 12.3918 40.8853 16.0555 37.5458 18.4063C32.8118 21.7395 31.0323 26.7911 30.9474 30.1036C30.8722 32.9961 31.8048 37.8852 38.2698 40.4682C38.4813 40.5526 38.6423 40.7264 38.7067 40.945C39.1772 42.5358 40.1188 44.4907 42.0278 45.8399C42.0415 45.8499 42.0554 45.859 42.069 45.8682C42.3647 46.0752 42.6858 46.2645 43.0315 46.4375C43.0331 46.4383 43.0347 46.4383 43.0362 46.4399C43.7044 46.7731 44.4423 47.0567 45.3159 47.2254C45.8069 47.3204 46.3249 47.3801 46.8546 47.4024C48.814 47.485 50.3458 47.2567 51.5306 46.895C51.9657 46.7626 52.4163 47.0344 52.4739 47.4858C52.6425 48.8237 52.8071 50.4368 52.9429 52.2897L53.1452 55.0667C53.173 55.4444 53.4823 55.7395 53.8603 55.7485L56.6442 55.8206C57.3884 55.8397 58.2028 55.8926 58.2105 55.8934L60.9661 56.0719C61.3415 56.0965 61.6741 55.8344 61.7384 55.4643L62.212 52.744L62.34 52.0108C62.4021 51.6536 62.7146 51.4077 63.0763 51.4016C65.7735 51.3563 67.4724 50.1458 68.3245 49.3135C69.5437 48.1227 70.2318 46.6215 70.5568 45.1411C70.605 44.9227 70.7437 44.7403 70.9431 44.6391C72.2394 43.9788 73.6669 42.9573 74.8142 41.3877ZM41.706 37.5641L45.2103 33.9979C45.4493 33.7549 45.8239 33.7075 46.1161 33.8844L53.5935 38.4079C54.086 38.7059 54.7153 38.3473 54.7099 37.7709L54.6349 30.086C54.631 29.6653 54.9798 29.3266 55.4003 29.3434L61.1261 29.5756C61.5321 29.5916 61.8747 29.276 61.8907 28.8698L61.8931 28.8178C61.9099 28.4116 61.5942 28.069 61.188 28.053L53.8608 27.7557C53.4401 27.7389 53.0915 28.0776 53.0952 28.4983L53.1589 35.0516C53.1644 35.6278 52.5351 35.9866 52.0425 35.6885L45.8731 31.9559C45.6771 31.8379 45.4563 31.8547 45.2517 31.9291C45.2224 31.9397 45.1966 31.9559 45.1688 31.9704C45.1013 32.0049 45.0231 32.0133 44.9673 32.07L40.3911 36.7282C40.1843 36.9381 39.8671 37.0102 39.5942 36.8997C36.1106 35.4989 34.6731 33.22 34.7565 30.1862C34.8317 30.0116 34.9007 29.8506 34.9757 29.6758L36.1636 28.4543C36.3536 28.2588 36.6124 28.2 36.847 28.2512C36.8585 28.2536 36.8677 28.2588 36.8792 28.2612C37.1069 28.3225 37.3091 28.4858 37.3911 28.7416L38.4218 31.9379C38.6034 32.5026 39.3444 32.6305 39.7054 32.1602L42.4448 28.5924C42.6585 28.3135 43.0401 28.2254 43.3552 28.3817L49.1843 31.275C49.5483 31.4559 49.9896 31.3073 50.1706 30.9434L50.1937 30.8967C50.3745 30.5319 50.2259 30.0905 49.8618 29.9104L42.9101 26.4598C42.5952 26.3036 42.2136 26.3916 41.9989 26.6705L40.2657 28.9288C39.904 29.3993 39.1638 29.2713 38.9813 28.7065L38.0649 25.8629C37.8948 25.335 37.2243 25.1778 36.8372 25.5756L36.1163 26.3174L35.4854 26.9274C36.2548 24.9955 37.6435 22.9979 39.7392 21.5219C42.1751 19.8071 45.4052 18.3135 49.2841 17.7786C49.3675 17.7672 49.4495 17.7741 49.5284 17.7909C49.5575 17.7969 49.5819 17.8092 49.6097 17.8184C49.7415 17.8621 49.8579 17.9403 49.9468 18.0477C49.9667 18.0715 49.9819 18.0967 49.9987 18.1227C50.0356 18.1817 50.0716 18.2422 50.0915 18.3114L50.4532 19.578C50.5812 20.0248 50.2677 20.476 49.805 20.5135L44.0063 20.9803C43.3505 21.0332 43.0884 21.8555 43.5935 22.2776L49.1935 26.9625C49.5054 27.2231 49.9689 27.1817 50.2302 26.87L50.264 26.8293C50.5245 26.5182 50.4831 26.0539 50.1722 25.7934L47.4288 23.4983C46.923 23.076 47.1851 22.2539 47.8409 22.201L51.7812 21.8844C52.244 21.8469 52.5573 21.3955 52.4294 20.9489L51.7321 18.5067C51.5966 18.0317 51.9575 17.5657 52.4524 17.5672C53.8763 17.5733 55.3689 17.7098 56.9298 18.0116C57.7413 18.1688 58.5704 18.3694 59.4163 18.6176C65.9534 20.5395 69.3896 23.8268 71.2171 27.4461C71.3689 27.7457 71.2876 28.109 71.0316 28.3266C70.4874 28.7911 69.5987 29.5979 68.079 31.0155C67.781 31.2928 67.7626 31.762 68.0407 32.059L68.0769 32.0981C68.3534 32.394 68.8179 32.4102 69.1144 32.1342C69.8585 31.4422 70.6077 30.7541 71.214 30.2063C71.4093 30.0301 71.6607 29.9887 71.8861 30.0461C71.906 30.0514 71.9251 30.059 71.945 30.0661C72.1618 30.1413 72.3482 30.309 72.4187 30.5588C72.6073 31.2362 72.7573 31.9143 72.8745 32.5887C73.9695 38.85 70.1466 41.0149 68.1099 41.7137C67.6923 41.8579 67.2446 41.611 67.1474 41.1803L66.4347 38.0057C66.345 37.6096 65.9519 37.3606 65.5558 37.4495L65.5036 37.4608C65.1075 37.5497 64.8585 37.9436 64.9474 38.3397L65.0316 38.7137L65.0476 38.8333L62.9228 38.4217C62.5243 38.3452 62.138 38.6057 62.0607 39.0049L62.0507 39.0563C61.9741 39.4555 62.2347 39.8418 62.6339 39.9184L64.9505 40.3666C65.2378 40.4225 65.4646 40.6426 65.5282 40.9276L66.3681 44.6639L66.454 45.0631H66.4577L66.4646 45.093L66.5743 45.0555L66.6142 45.0532C66.0239 46.66 64.6134 48.0379 61.6372 47.4616C61.1927 47.3758 60.7138 47.2463 60.1974 47.0676C59.7712 46.9206 59.3107 47.1895 59.2341 47.634L58.5704 51.4454C58.5067 51.8118 58.1825 52.0739 57.811 52.0545C57.6831 52.0477 57.5427 52.0417 57.3958 52.0346C57.0241 52.0186 56.7222 51.7241 56.6931 51.3534C56.5075 49.0084 56.2685 46.961 56.021 45.3473L56.2616 45.1473L59.673 43.079C59.9327 42.9211 60.0693 42.6208 60.0163 42.3219L59.0685 36.9309C59.0148 36.6252 59.1587 36.3188 59.4294 36.1647L62.1337 34.6245C62.4862 34.4229 62.6095 33.9739 62.4079 33.6206L62.3825 33.5754C62.1812 33.2221 61.7321 33.0995 61.3796 33.3002L59.6064 34.3094C59.1644 34.5616 58.6064 34.2995 58.5183 33.7983L58.1398 31.645C58.0693 31.245 57.6876 30.9776 57.2876 31.0481L57.2357 31.0573C56.8357 31.1278 56.5681 31.5092 56.6386 31.9092L58.3351 41.5583C58.3872 41.8571 58.2517 42.1575 57.9917 42.3153L56.2999 43.3407L55.7314 43.6733C55.6892 43.4618 55.647 43.2557 55.6058 43.0741C55.5987 43.0641 55.5835 43.0573 55.5581 43.0526C55.3659 43.0151 54.6441 43.1092 53.6155 42.91C53.247 42.8387 52.8386 42.7292 52.4003 42.5627C52.1644 42.4733 51.903 42.493 51.6983 42.6411C51.1628 43.0272 49.8064 43.7131 47.0155 43.595C46.6653 43.5805 46.3405 43.5422 46.0394 43.4838C46.0288 43.4817 46.0187 43.4801 46.0079 43.4778C45.1927 43.3153 45.2876 42.1069 46.1161 42.0379L48.3022 41.8555C48.7001 41.8217 48.9987 41.4778 48.9751 41.0793L48.7927 37.9291C48.7696 37.5229 48.4218 37.2133 48.0157 37.2372L47.9638 37.2403C47.5575 37.2633 47.248 37.611 47.271 38.0165L47.3675 39.6846C47.3913 40.0831 47.0925 40.4272 46.6946 40.46L43.2372 40.7481C42.8985 40.7766 42.5853 40.568 42.4749 40.2477C42.114 39.1979 42.022 38.1717 41.8964 37.6254C41.8534 37.6155 41.8136 37.604 41.7729 37.5924L41.706 37.5641Z" fill="#FFC069"/>
<path d="M64.2047 27.2984L63.6676 34.4487C63.643 34.7782 63.8407 35.0839 64.1518 35.1958L71.112 37.7064C71.4944 37.8443 71.9167 37.6458 72.0538 37.2634L72.0721 37.2136C72.21 36.8312 72.0116 36.4099 71.6293 36.2718L65.7588 34.1546C65.4475 34.0419 65.2499 33.737 65.2745 33.4073L65.8446 25.8165C65.876 25.3974 65.5505 25.0364 65.1296 25.0257L60.4667 24.9054C60.1319 24.8962 59.8452 24.6632 59.7686 24.3368L59.026 21.1536C58.9335 20.7575 58.538 20.5124 58.1426 20.6042L58.0905 20.6165C57.695 20.7083 57.4491 21.1046 57.5419 21.4999L57.5532 21.5513C57.6512 21.9712 57.37 22.3843 56.944 22.447L53.3403 22.9749C52.938 23.0339 52.6598 23.4071 52.7188 23.8095L52.7264 23.8622C52.7854 24.2638 53.1587 24.5427 53.561 24.4837L57.4139 23.9191C57.7925 23.8632 58.1503 24.1068 58.237 24.4792L58.5526 25.8302C58.6286 26.1558 58.9151 26.3896 59.2499 26.398L63.4897 26.5083C63.9104 26.5193 64.2362 26.8794 64.2047 27.2984Z" fill="#FFC069"/>
</svg>
