<svg width="106" height="101" viewBox="0 0 106 101" fill="none" xmlns="http://www.w3.org/2000/svg">
<path d="M102.785 64.3801L90.994 30.9469C91.0218 30.9486 91.0513 30.9521 91.0774 30.9521C99.1954 31.0911 101.225 26.7266 102.281 25.2154C103.742 23.1271 100.657 21.0386 99.0336 22.4317C97.4103 23.8227 93.0251 26.7457 84.5819 22.8473C76.9692 19.3328 63.6226 13.219 55.8307 12.0489V4.04136C55.8307 2.23475 54.3674 0.772461 52.5624 0.772461C50.7566 0.772461 49.2933 2.23475 49.2933 4.04136V12.0489C41.5014 13.219 28.155 19.3328 20.5421 22.8473C12.0991 26.7457 7.71368 23.8227 6.09041 22.4317C4.46715 21.0388 1.38139 23.1273 2.84307 25.2154C3.89944 26.7266 5.92862 31.0911 14.0466 30.9521C14.0737 30.9521 14.1032 30.9486 14.1291 30.9469L2.3388 64.3801H0C2.36057 72.1874 9.60981 77.877 18.1903 77.877C26.7699 77.877 34.0191 72.1874 36.3797 64.3801H34.0419L21.6498 29.2428C29.2842 26.8884 40.0401 22.8664 49.2933 22.2471V27.222H47.5466V82.1961H44.8358V87.0946C43.0464 87.0946 41.2285 87.0946 39.7286 87.0946C34.9336 87.0946 35.0755 93.8638 35.0755 93.8638C31.1265 93.8638 29.152 96.9644 29.152 100.772H75.9718C75.9718 96.9646 73.9974 93.8638 70.0493 93.8638C70.0493 93.8638 70.1902 87.0946 65.3951 87.0946C63.8953 87.0946 62.0773 87.0946 60.288 87.0946V82.1961H57.5771V27.2222H55.8305V22.2473C65.0847 22.8664 75.8404 26.8884 83.4748 29.243L71.0821 64.3803H68.7441C71.1045 72.1876 78.3539 77.8772 86.9334 77.8772C95.5137 77.8772 102.763 72.1876 105.124 64.3803H102.785V64.3801ZM29 64.3801H7.38085L18.1903 33.7309L29 64.3801ZM76.1241 64.3801L86.9346 33.7309L97.7433 64.3801H76.1241Z" fill="#597EF7"/>
</svg>
