<svg width="37" height="34" viewBox="0 0 37 34" fill="none" xmlns="http://www.w3.org/2000/svg">
<path d="M4.82609 4.85714V0H8.04348V4.85714H12.8696V8.09524H8.04348V12.9524H4.82609V8.09524H0V4.85714H4.82609ZM9.65217 14.5714V9.71429H14.4783V4.85714H25.7391L28.683 8.09524H33.7826C35.5522 8.09524 37 9.55238 37 11.3333V30.7619C37 32.5429 35.5522 34 33.7826 34H8.04348C6.27391 34 4.82609 32.5429 4.82609 30.7619V14.5714H9.65217ZM20.913 29.1429C25.353 29.1429 28.9565 25.5162 28.9565 21.0476C28.9565 16.579 25.353 12.9524 20.913 12.9524C16.473 12.9524 12.8696 16.579 12.8696 21.0476C12.8696 25.5162 16.473 29.1429 20.913 29.1429ZM15.7652 21.0476C15.7652 23.9133 18.0657 26.2286 20.913 26.2286C23.7604 26.2286 26.0609 23.9133 26.0609 21.0476C26.0609 18.1819 23.7604 15.8667 20.913 15.8667C18.0657 15.8667 15.7652 18.1819 15.7652 21.0476Z" fill="#CBCBCB"/>
</svg>
