<svg width="160" height="57" viewBox="0 0 160 57" fill="none" xmlns="http://www.w3.org/2000/svg">
<path fill-rule="evenodd" clip-rule="evenodd" d="M124.381 24.926C125.719 24.926 126.899 25.327 127.791 26.0177V25.1934H130.087V35.9428C130.087 39.1259 127.925 41.04 124.781 41.04C121.84 41.04 119.677 39.3031 119.387 36.8107H121.75C121.951 38.0797 123.065 38.9476 124.781 38.9476C126.542 38.9476 127.791 37.8569 127.791 35.9428V34.296C126.899 34.9857 125.719 35.3868 124.381 35.3868C121.438 35.3868 119.121 33.027 119.121 30.2227C119.121 27.1075 121.438 24.926 124.381 24.926ZM78.9754 24.9261C82.2293 24.9261 84.548 27.219 84.548 30.4233C84.548 33.6287 82.2293 35.9206 78.9754 35.9206C75.7205 35.9206 73.4029 33.6287 73.4029 30.4233C73.4029 27.219 75.7205 24.9261 78.9754 24.9261ZM90.4554 24.9039C92.484 24.9039 94.823 25.5936 95.0471 28.3311H92.907C92.7954 27.1958 91.7923 26.7512 90.4554 26.7512C89.1176 26.7512 88.3822 27.2414 88.3822 27.9756C88.3822 28.5316 88.7828 29.0663 90.0091 29.2669L91.9708 29.5778C93.5531 29.8674 95.1131 30.5571 95.1131 32.5826C95.1131 34.7854 93.1737 35.9207 90.5447 35.9207C88.0698 35.9207 85.9519 34.9414 85.6852 32.1816L87.8253 32.2039C88.0698 33.4951 89.0283 34.0289 90.6106 34.0289C91.9708 34.0289 92.907 33.5843 92.907 32.7609C92.907 32.137 92.3937 31.6924 91.5022 31.5365L89.1845 31.1364C87.5799 30.8691 86.0868 30.067 86.0868 28.1761C86.0868 26.1506 87.8466 24.9039 90.4554 24.9039ZM100.709 21.3438V25.1933H104.586V27.1297H100.709V31.6253C100.709 33.1383 101.467 33.7845 102.759 33.7845C103.384 33.7845 104.007 33.6062 104.542 33.3834L104.877 35.4981C103.963 35.8313 103.205 35.9204 102.491 35.9204C99.8162 35.9204 98.3901 34.3182 98.3901 31.6253V27.1297H95.9163V25.1933H98.3901V21.3438H100.709ZM111.563 24.9268C112.901 24.9268 114.038 25.3268 114.929 26.0175V25.1932H117.225V35.6529H114.929V34.8296C114.038 35.5203 112.901 35.9203 111.563 35.9203C108.622 35.9203 106.259 33.4725 106.259 30.423C106.259 27.3746 108.622 24.9268 111.563 24.9268ZM137.42 24.9263C140.897 24.9263 143.059 27.5747 142.614 31.1132H134.389C134.612 32.6931 135.615 33.8953 137.577 33.8953C138.601 33.8953 139.381 33.5834 139.805 32.9159H142.346C141.677 34.8078 139.827 35.9208 137.554 35.9208C134.256 35.9208 132.025 33.5398 132.025 30.4235C132.025 27.3306 134.232 24.9263 137.42 24.9263ZM58.7357 20.52C62.3242 20.52 64.6865 22.5901 64.6865 25.683C64.6865 28.932 62.1903 31.0912 58.4009 31.0912H55.5477V35.6536H53.1408V20.52H58.7357ZM72.6668 24.9714V27.1518C70.9952 27.2187 69.7253 27.8415 68.7892 29.0659V35.6529H66.4705V25.1932H68.7892V26.6171C69.7477 25.5719 71.0622 24.9714 72.6668 24.9714ZM78.9754 27.0185C77.0807 27.0185 75.7205 28.4424 75.7205 30.4233C75.7205 32.382 77.0807 33.8282 78.9754 33.8282C80.8701 33.8282 82.2293 32.382 82.2293 30.4233C82.2293 28.4424 80.8701 27.0185 78.9754 27.0185ZM111.898 27.0181C109.981 27.0181 108.577 28.5545 108.577 30.423C108.577 32.2936 109.981 33.8279 111.898 33.8279C113.057 33.8279 114.148 33.4279 114.929 32.3149V28.5322C114.148 27.4192 113.057 27.0181 111.898 27.0181ZM124.714 26.9069C122.776 26.9069 121.438 28.2873 121.438 30.2227C121.438 31.8259 122.776 33.3835 124.714 33.3835C125.874 33.3835 127.01 32.9389 127.791 31.7814V28.5324C127.01 27.3738 125.874 26.9069 124.714 26.9069ZM137.443 26.885C135.703 26.885 134.701 28.0415 134.433 29.5111H140.317C140.184 27.7975 139.07 26.885 137.443 26.885ZM58.6687 22.7227H55.5477V28.8884H58.6687C60.8525 28.8884 62.3242 27.5971 62.3242 25.683C62.3242 23.9249 60.8525 22.7227 58.6687 22.7227Z" fill="#525252"/>
<path fill-rule="evenodd" clip-rule="evenodd" d="M21.1489 41.61C18.0872 41.61 15.5956 39.1458 15.5956 36.1178C15.5956 33.6136 17.3028 31.4294 19.7499 30.8006C19.7509 30.8006 19.9127 30.7556 20.1421 30.7106C20.8931 30.5686 21.6239 31.0535 21.7695 31.7982C21.915 32.543 21.4238 33.2627 20.6708 33.4077C20.5717 33.4257 20.5009 33.4447 20.4838 33.4497C19.2274 33.7706 18.3722 34.8642 18.3722 36.1178C18.3722 37.6323 19.6175 38.8639 21.1489 38.8639C22.6802 38.8639 23.9255 37.6323 23.9255 36.1178V23.8408C23.9255 18.5526 28.2758 14.25 33.6229 14.25C38.9699 14.25 43.3213 18.5526 43.3213 23.8408C43.3213 29.1291 38.9699 33.4327 33.6229 33.4327H30.1983C29.4312 33.4327 28.8095 32.8179 28.8095 32.0591C28.8095 31.3004 29.4312 30.6866 30.1983 30.6866H33.6229C37.4396 30.6866 40.5437 27.6156 40.5437 23.8408C40.5437 20.0671 37.4396 16.9961 33.6229 16.9961C29.8072 16.9961 26.7021 20.0671 26.7021 23.8408V36.1178C26.7021 39.1458 24.2105 41.61 21.1489 41.61Z" fill="#3982C4"/>
</svg>
