<svg width="40" height="40" viewBox="0 0 40 40" fill="none" xmlns="http://www.w3.org/2000/svg">
<path d="M19.835 4C11.0901 4 4 11.0901 4 19.835C4 28.5799 11.0901 35.67 19.835 35.67C28.5799 35.67 35.67 28.5799 35.67 19.835C35.67 11.0901 28.5799 4 19.835 4ZM27.8396 16.7274C28.0811 22.0585 24.1052 28.0019 17.0665 28.0019C14.9262 28.0019 12.9349 27.3738 11.2577 26.2983C13.2688 26.5358 15.2758 25.9763 16.8686 24.7293C15.2112 24.699 13.8111 23.6024 13.3268 22.0968C13.9219 22.2102 14.5078 22.1773 15.0396 22.0321C13.2173 21.6653 11.9584 20.0237 11.9993 18.2673C12.5113 18.551 13.0946 18.7213 13.7161 18.7411C12.0283 17.6128 11.5507 15.384 12.543 13.6805C14.4115 15.9739 17.2051 17.4822 20.3549 17.6405C19.802 15.2706 21.6006 12.9864 24.0484 12.9864C25.1371 12.9864 26.1228 13.4469 26.8143 14.1832C27.6773 14.0143 28.4901 13.6976 29.2212 13.2635C28.9375 14.1489 28.3371 14.8905 27.5546 15.3603C28.3212 15.2679 29.0523 15.0647 29.7306 14.7625C29.2238 15.5252 28.5825 16.193 27.8396 16.7274V16.7274Z" fill="#03A9F4"/>
</svg>
