<svg width="100" height="100" viewBox="0 0 100 100" fill="none" xmlns="http://www.w3.org/2000/svg">
<path d="M89.2084 48.25L51.7084 10.75C50.2084 9.24999 48.125 8.33333 45.8334 8.33333H16.6667C12.0834 8.33333 8.33337 12.0833 8.33337 16.6667V45.8333C8.33337 48.125 9.25004 50.2083 10.7917 51.75L48.2917 89.25C49.7917 90.75 51.875 91.6667 54.1667 91.6667C56.4584 91.6667 58.5417 90.75 60.0417 89.2083L89.2084 60.0417C90.75 58.5417 91.6667 56.4583 91.6667 54.1667C91.6667 51.875 90.7084 49.75 89.2084 48.25ZM22.9167 29.1667C19.4584 29.1667 16.6667 26.375 16.6667 22.9167C16.6667 19.4583 19.4584 16.6667 22.9167 16.6667C26.375 16.6667 29.1667 19.4583 29.1667 22.9167C29.1667 26.375 26.375 29.1667 22.9167 29.1667ZM71.9584 63.625L54.1667 81.4167L36.375 63.625C34.5 61.7083 33.3334 59.125 33.3334 56.25C33.3334 50.5 38 45.8333 43.75 45.8333C46.625 45.8333 49.25 47 51.125 48.9167L54.1667 51.9167L57.2084 48.875C59.0834 47 61.7084 45.8333 64.5834 45.8333C70.3334 45.8333 75 50.5 75 56.25C75 59.125 73.8334 61.75 71.9584 63.625Z" fill="white"/>
</svg>
